<?xml version="1.0" encoding="UTF-8"?>
<svg version="1.1" xmlns="http://www.w3.org/2000/svg" width="500" height="500">
<path d="M0 0 C3.58699573 2.06402548 6.78715395 4.39781476 10 7 C10.7115625 7.53753906 11.423125 8.07507813 12.15625 8.62890625 C26.21369384 20.01237979 35.8967825 37.07993286 43.5 53.1875 C43.97775879 54.19707764 44.45551758 55.20665527 44.94775391 56.24682617 C53.72556851 74.95082888 59.68125547 93.61662986 63 114 C63.16556396 114.96607178 63.33112793 115.93214355 63.50170898 116.92749023 C64.28189146 122.49102005 64.37153352 128.10241788 64.55078125 133.7109375 C64.59262039 135.00671722 64.63445953 136.30249695 64.67756653 137.63754272 C65.19026842 154.72307843 65.18721694 171.81595275 65.18530273 188.90771484 C65.18520029 193.69610814 65.19898964 198.48435594 65.21607494 203.27271461 C65.22730941 207.04280227 65.22921867 210.81285556 65.22869301 214.58295822 C65.22985067 216.34714648 65.23414279 218.11133632 65.24202538 219.87550735 C65.27990242 229.20236813 65.01117308 238.4138277 64.09887695 247.70068359 C64.01972896 248.50735788 63.94058096 249.31403217 63.85903454 250.14515114 C63.0131006 257.98966061 61.31376376 265.46606046 59 273 C58.66355469 274.11375 58.32710938 275.2275 57.98046875 276.375 C54.0064968 287.60884297 45.77894164 292.59001864 35.37182617 297.62915039 C-20.35246765 323.32104561 -145.00873042 323.70726144 -202 304 C-209.39500388 300.90343694 -217.05127301 297.45963471 -223 292 C-223 291.34 -223 290.68 -223 290 C-223.59329102 289.73123047 -224.18658203 289.46246094 -224.79785156 289.18554688 C-227.00540033 287.99709268 -228.46542882 286.79257611 -230.234375 285.03125 C-230.80800781 284.46019531 -231.38164062 283.88914062 -231.97265625 283.30078125 C-232.55917969 282.70652344 -233.14570313 282.11226563 -233.75 281.5 C-234.35199219 280.90574219 -234.95398438 280.31148438 -235.57421875 279.69921875 C-236.14269531 279.12816406 -236.71117187 278.55710937 -237.296875 277.96875 C-237.81604492 277.44732422 -238.33521484 276.92589844 -238.87011719 276.38867188 C-240 275 -240 275 -240 273 C-240.66 273 -241.32 273 -242 273 C-242 272.34 -242 271.68 -242 271 C-242.66 271 -243.32 271 -244 271 C-245.32519531 269.43041992 -245.32519531 269.43041992 -246.828125 267.23046875 C-247.37831299 266.42859131 -247.92850098 265.62671387 -248.49536133 264.80053711 C-249.07439209 263.93823486 -249.65342285 263.07593262 -250.25 262.1875 C-250.83612061 261.3219751 -251.42224121 260.4564502 -252.02612305 259.56469727 C-263 243.19949975 -263 243.19949975 -263 239 C-263.65484375 238.76925781 -264.3096875 238.53851563 -264.984375 238.30078125 C-268.95044777 236.59002706 -272.55164168 234.40870818 -276.25 232.1875 C-277.77812855 231.27777636 -279.306769 230.36891199 -280.8359375 229.4609375 C-281.56135742 229.03006836 -282.28677734 228.59919922 -283.03417969 228.15527344 C-285.29077095 226.8291197 -287.57373607 225.55936664 -289.875 224.3125 C-298.93826076 219.32770658 -308.07815727 213.66538025 -316 207 C-316 206.34 -316 205.68 -316 205 C-316.55558594 204.76152344 -317.11117187 204.52304687 -317.68359375 204.27734375 C-320.53061436 202.70740153 -322.66928174 200.76079551 -325.0625 198.5625 C-325.91972656 197.78003906 -326.77695312 196.99757813 -327.66015625 196.19140625 C-328.43230469 195.46824219 -329.20445312 194.74507812 -330 194 C-330.53238281 193.56300781 -331.06476563 193.12601563 -331.61328125 192.67578125 C-333.82585329 190.00199701 -334.89375902 186.82993883 -336.125 183.625 C-336.38925781 182.965 -336.65351563 182.305 -336.92578125 181.625 C-340.85520526 171.61194999 -342.16428043 158.71124145 -338.4375 148.375 C-334.11768889 139.5403863 -327.13437434 135.14440767 -318 132 C-304.32883558 129.12471542 -291.47141941 131.19092616 -279 137 C-279.00523682 135.91396484 -279.01047363 134.82792969 -279.01586914 133.70898438 C-279.1902631 94.08766756 -279.1902631 94.08766756 -278.08203125 75.08544922 C-277.96178081 72.78480411 -277.96178081 72.78480411 -278.15625 69.625 C-277.96661902 66.43919947 -277.18195091 65.39786553 -275 63.125 C-274.443125 62.52945313 -273.88625 61.93390625 -273.3125 61.3203125 C-272.879375 60.88460937 -272.44625 60.44890625 -272 60 C-273.485 59.505 -273.485 59.505 -275 59 C-275.11869086 56.09207405 -275.14384953 54.61961969 -274 52 C-271.60547372 49.97748048 -269.1342829 48.38054809 -266.4453125 46.7734375 C-263.69544078 44.77912159 -262.57026797 42.98068831 -261 40 C-260.34 39.01 -259.68 38.02 -259 37 C-258.34 37 -257.68 37 -257 37 C-257.99 34.525 -257.99 34.525 -259 32 C-257.90234375 30.53125 -257.90234375 30.53125 -256 29 C-253.00390625 28.59375 -253.00390625 28.59375 -249.5625 28.5 C-244.71499174 28.36764483 -242.78887191 27.85452012 -239 25 C-231.93837431 22.15610168 -224.26697889 20.97954159 -216.8125 19.625 C-208.42004393 18.06195554 -200.07614929 16.38313674 -191.75 14.5 C-182.85353761 12.52240064 -173.92109749 10.84511678 -164.9375 9.3125 C-163.20161621 9.00892578 -163.20161621 9.00892578 -161.43066406 8.69921875 C-142.16954417 5.50058273 -122.93634691 4.62771739 -103.4375 4.6875 C-102.35335815 4.68766113 -101.26921631 4.68782227 -100.15222168 4.68798828 C-84.67771821 4.70393257 -69.51879675 5.32457586 -54.171875 7.34375 C-48.60042366 8.13977457 -48.60042366 8.13977457 -43 8 C-42.34 7.01 -41.68 6.02 -41 5 C-40.34 5 -39.68 5 -39 5 C-39 4.34 -39 3.68 -39 3 C-36.69921875 1.30859375 -36.69921875 1.30859375 -33.6875 -0.5625 C-32.70136719 -1.18253906 -31.71523438 -1.80257812 -30.69921875 -2.44140625 C-20.75095606 -8.18577212 -9.74230214 -4.48599029 0 0 Z " fill="#42404B" transform="translate(352,113)"/>
<path d="M0 0 C3.58699573 2.06402548 6.78715395 4.39781476 10 7 C10.7115625 7.53753906 11.423125 8.07507813 12.15625 8.62890625 C26.21369384 20.01237979 35.8967825 37.07993286 43.5 53.1875 C43.97775879 54.19707764 44.45551758 55.20665527 44.94775391 56.24682617 C53.72556851 74.95082888 59.68125547 93.61662986 63 114 C63.16556396 114.96607178 63.33112793 115.93214355 63.50170898 116.92749023 C64.28189146 122.49102005 64.37153352 128.10241788 64.55078125 133.7109375 C64.59262039 135.00671722 64.63445953 136.30249695 64.67756653 137.63754272 C65.19026842 154.72307843 65.18721694 171.81595275 65.18530273 188.90771484 C65.18520029 193.69610814 65.19898964 198.48435594 65.21607494 203.27271461 C65.22730941 207.04280227 65.22921867 210.81285556 65.22869301 214.58295822 C65.22985067 216.34714648 65.23414279 218.11133632 65.24202538 219.87550735 C65.27990242 229.20236813 65.01117308 238.4138277 64.09887695 247.70068359 C64.01972896 248.50735788 63.94058096 249.31403217 63.85903454 250.14515114 C63.0131006 257.98966061 61.31376376 265.46606046 59 273 C58.66355469 274.11375 58.32710938 275.2275 57.98046875 276.375 C54.0064968 287.60884297 45.77894164 292.59001864 35.37182617 297.62915039 C-20.35246765 323.32104561 -145.00873042 323.70726144 -202 304 C-209.39500388 300.90343694 -217.05127301 297.45963471 -223 292 C-223 291.34 -223 290.68 -223 290 C-223.59329102 289.73123047 -224.18658203 289.46246094 -224.79785156 289.18554688 C-227.00540033 287.99709268 -228.46542882 286.79257611 -230.234375 285.03125 C-230.80800781 284.46019531 -231.38164062 283.88914062 -231.97265625 283.30078125 C-232.55917969 282.70652344 -233.14570313 282.11226563 -233.75 281.5 C-234.35199219 280.90574219 -234.95398438 280.31148438 -235.57421875 279.69921875 C-236.14269531 279.12816406 -236.71117187 278.55710937 -237.296875 277.96875 C-237.81604492 277.44732422 -238.33521484 276.92589844 -238.87011719 276.38867188 C-240 275 -240 275 -240 273 C-240.66 273 -241.32 273 -242 273 C-242 272.34 -242 271.68 -242 271 C-242.66 271 -243.32 271 -244 271 C-245.32519531 269.43041992 -245.32519531 269.43041992 -246.828125 267.23046875 C-247.37831299 266.42859131 -247.92850098 265.62671387 -248.49536133 264.80053711 C-249.07439209 263.93823486 -249.65342285 263.07593262 -250.25 262.1875 C-250.83612061 261.3219751 -251.42224121 260.4564502 -252.02612305 259.56469727 C-263 243.19949975 -263 243.19949975 -263 239 C-263.65484375 238.76925781 -264.3096875 238.53851563 -264.984375 238.30078125 C-268.95044777 236.59002706 -272.55164168 234.40870818 -276.25 232.1875 C-277.77812855 231.27777636 -279.306769 230.36891199 -280.8359375 229.4609375 C-281.56135742 229.03006836 -282.28677734 228.59919922 -283.03417969 228.15527344 C-285.29077095 226.8291197 -287.57373607 225.55936664 -289.875 224.3125 C-298.93826076 219.32770658 -308.07815727 213.66538025 -316 207 C-316 206.34 -316 205.68 -316 205 C-316.55558594 204.76152344 -317.11117187 204.52304687 -317.68359375 204.27734375 C-320.53061436 202.70740153 -322.66928174 200.76079551 -325.0625 198.5625 C-325.91972656 197.78003906 -326.77695312 196.99757813 -327.66015625 196.19140625 C-328.43230469 195.46824219 -329.20445312 194.74507812 -330 194 C-330.53238281 193.56300781 -331.06476563 193.12601563 -331.61328125 192.67578125 C-333.82585329 190.00199701 -334.89375902 186.82993883 -336.125 183.625 C-336.38925781 182.965 -336.65351563 182.305 -336.92578125 181.625 C-340.85520526 171.61194999 -342.16428043 158.71124145 -338.4375 148.375 C-334.11768889 139.5403863 -327.13437434 135.14440767 -318 132 C-304.32883558 129.12471542 -291.47141941 131.19092616 -279 137 C-279.00523682 135.91396484 -279.01047363 134.82792969 -279.01586914 133.70898438 C-279.1902631 94.08766756 -279.1902631 94.08766756 -278.08203125 75.08544922 C-277.96178081 72.78480411 -277.96178081 72.78480411 -278.15625 69.625 C-277.96661902 66.43919947 -277.18195091 65.39786553 -275 63.125 C-274.443125 62.52945313 -273.88625 61.93390625 -273.3125 61.3203125 C-272.879375 60.88460937 -272.44625 60.44890625 -272 60 C-273.485 59.505 -273.485 59.505 -275 59 C-275.11869086 56.09207405 -275.14384953 54.61961969 -274 52 C-271.60547372 49.97748048 -269.1342829 48.38054809 -266.4453125 46.7734375 C-263.69544078 44.77912159 -262.57026797 42.98068831 -261 40 C-260.34 39.01 -259.68 38.02 -259 37 C-258.34 37 -257.68 37 -257 37 C-257.99 34.525 -257.99 34.525 -259 32 C-257.90234375 30.53125 -257.90234375 30.53125 -256 29 C-253.00390625 28.59375 -253.00390625 28.59375 -249.5625 28.5 C-244.71499174 28.36764483 -242.78887191 27.85452012 -239 25 C-231.93837431 22.15610168 -224.26697889 20.97954159 -216.8125 19.625 C-208.42004393 18.06195554 -200.07614929 16.38313674 -191.75 14.5 C-182.85353761 12.52240064 -173.92109749 10.84511678 -164.9375 9.3125 C-163.20161621 9.00892578 -163.20161621 9.00892578 -161.43066406 8.69921875 C-142.16954417 5.50058273 -122.93634691 4.62771739 -103.4375 4.6875 C-102.35335815 4.68766113 -101.26921631 4.68782227 -100.15222168 4.68798828 C-84.67771821 4.70393257 -69.51879675 5.32457586 -54.171875 7.34375 C-48.60042366 8.13977457 -48.60042366 8.13977457 -43 8 C-42.34 7.01 -41.68 6.02 -41 5 C-40.34 5 -39.68 5 -39 5 C-39 4.34 -39 3.68 -39 3 C-36.69921875 1.30859375 -36.69921875 1.30859375 -33.6875 -0.5625 C-32.70136719 -1.18253906 -31.71523438 -1.80257812 -30.69921875 -2.44140625 C-20.75095606 -8.18577212 -9.74230214 -4.48599029 0 0 Z M-29 5 C-29 5.66 -29 6.32 -29 7 C-29.556875 7.226875 -30.11375 7.45375 -30.6875 7.6875 C-34.97109708 10.11873077 -38.31264396 13.89824605 -41 18 C-41 18.66 -41 19.32 -41 20 C-41.66 20 -42.32 20 -43 20 C-43 20.66 -43 21.32 -43 22 C-43.66 22 -44.32 22 -45 22 C-45.37125 23.2375 -45.37125 23.2375 -45.75 24.5 C-47 28 -47 28 -48.8125 31.3125 C-52.19170683 37.8286309 -56 47.63725472 -56 55 C-56.7935791 55.01981934 -57.5871582 55.03963867 -58.40478516 55.06005859 C-71.83217844 55.41070903 -85.24399201 55.76097521 -98.625 57 C-99.52299316 57.0829834 -100.42098633 57.1659668 -101.34619141 57.25146484 C-105.73899437 57.66542606 -105.73899437 57.66542606 -110.05566406 58.53271484 C-112 59 -112 59 -115.2578125 58.9765625 C-119.25698817 59.00160953 -122.97369667 59.58703352 -126.875 60.375 C-127.57681396 60.51075439 -128.27862793 60.64650879 -129.00170898 60.78637695 C-132.7083367 61.51107431 -136.38971759 62.30881368 -140.0625 63.1875 C-145.7315123 64.43061045 -149.85872367 64.8702312 -154.9375 61.75 C-159.77798734 58.80071856 -164.67267961 57.62841498 -170.15209961 56.43261719 C-173.41606999 55.70684342 -176.32927009 54.85580241 -179.3984375 53.51171875 C-200.4391185 44.6801097 -231.04815526 43.11987518 -253 49 C-253 49.66 -253 50.32 -253 51 C-253.66 51 -254.32 51 -255 51 C-259.55266591 55.71004202 -258.79027167 61.81301431 -259 68 C-259.04125 69.19625 -259.0825 70.3925 -259.125 71.625 C-259.33845136 84.21863012 -257.7114787 96.29520578 -255.0625 108.5625 C-254.90491211 109.30024658 -254.74732422 110.03799316 -254.58496094 110.7980957 C-253.52355579 115.46647033 -251.94012036 119.60679551 -250 124 C-249.3244683 126.15759173 -248.67767906 128.32443114 -248.0625 130.5 C-246.97323609 134.14612384 -245.95118873 137.45176353 -243.9375 140.6875 C-241.48604693 144.87869396 -239.89440825 149.21867741 -239 154 C-239.33 154.99 -239.66 155.98 -240 157 C-240.24369495 158.49466235 -240.44951044 159.9958038 -240.625 161.5 C-240.76808594 162.66015625 -240.76808594 162.66015625 -240.9140625 163.84375 C-241.13472338 166.18542446 -241.13472338 166.18542446 -240 169 C-237.69 169 -235.38 169 -233 169 C-233 172.3 -233 175.6 -233 179 C-233.66 179 -234.32 179 -235 179 C-235.05840224 183.18744075 -235.09373166 187.37477565 -235.125 191.5625 C-235.14175781 192.74392578 -235.15851563 193.92535156 -235.17578125 195.14257812 C-235.20967927 201.19337527 -234.93134066 206.21310474 -233 212 C-232.53443886 214.71723949 -232.23340317 217.44717931 -231.9375 220.1875 C-231.48991629 224.19355919 -231.0033392 228.09112854 -230 232 C-229.70155329 233.4577456 -229.41307164 234.917555 -229.1328125 236.37890625 C-226.83639597 248.21094081 -224.51465866 259.6023245 -219.8515625 270.76171875 C-218.81995607 273.47323474 -218.30328432 276.11879892 -218 279 C-220.31 279 -222.62 279 -225 279 C-224.49440629 283.05377811 -222.64650525 284.48536242 -219.5 286.9375 C-218.6853125 287.58589844 -217.870625 288.23429687 -217.03125 288.90234375 C-209.8548044 293.86851809 -203.22263586 296.85178342 -194.6875 298.6875 C-193.39682617 298.98624023 -193.39682617 298.98624023 -192.08007812 299.29101562 C-130.51342721 313.23149709 -57.20242461 306.71598657 5 298 C6.0631543 297.8654541 7.12630859 297.7309082 8.22167969 297.59228516 C21.45476699 295.88681213 34.17667841 292.18158077 45 284 C47.44495472 280.8117487 47.44495472 280.8117487 48 277 C48.66 277 49.32 277 50 277 C50.99768455 273.58847438 51.96951655 270.17006051 52.9375 266.75 C53.21529297 265.80125 53.49308594 264.8525 53.77929688 263.875 C54.04677734 262.92109375 54.31425781 261.9671875 54.58984375 260.984375 C54.83597412 260.12553711 55.08210449 259.26669922 55.33569336 258.38183594 C57.3066359 248.34821005 57.14898791 238.09101415 57.1328125 227.90625 C57.13395848 226.45033235 57.13543709 224.99441493 57.13722229 223.53849792 C57.1402129 219.66030107 57.13603083 215.78214827 57.12917709 211.90395737 C57.12498131 209.48924547 57.12203113 207.07453451 57.11929321 204.65982056 C57.09375476 184.75150631 57.03838352 164.84130989 56.73553467 144.93505859 C56.70404448 142.80604948 56.67675431 140.67697318 56.65411377 138.54785156 C56.47058066 122.36835244 55.50594966 106.18064737 50.4375 90.6875 C50.22931641 90.01267578 50.02113281 89.33785156 49.80664062 88.64257812 C48.59536871 84.74296604 47.30203416 80.87010153 46 77 C45.34 77 44.68 77 44 77 C43.82017578 75.68902344 43.82017578 75.68902344 43.63671875 74.3515625 C41.74129432 64.37442039 36.29099112 52.35966001 29.9453125 44.43359375 C28.10513578 42.13152528 27.07630836 40.19256714 25.9375 37.5 C23.64819145 32.73420673 20.70528551 28.88680272 17.3125 24.875 C16.82450928 24.29427734 16.33651855 23.71355469 15.83374023 23.11523438 C14.60524214 21.69906387 13.30764025 20.34343717 12 19 C11.34 19 10.68 19 10 19 C9.69449219 18.16855469 9.69449219 18.16855469 9.3828125 17.3203125 C5.91856114 11.50741615 -1.69389732 6.39587421 -8.11181641 4.31542969 C-15.42730167 2.66587595 -21.89157845 2.61523922 -29 5 Z " fill="#42404B" transform="translate(352,113)"/>
<path d="M0 0 C3.58699573 2.06402548 6.78715395 4.39781476 10 7 C10.7115625 7.53753906 11.423125 8.07507813 12.15625 8.62890625 C26.21369384 20.01237979 35.8967825 37.07993286 43.5 53.1875 C43.97775879 54.19707764 44.45551758 55.20665527 44.94775391 56.24682617 C53.72556851 74.95082888 59.68125547 93.61662986 63 114 C63.16556396 114.96607178 63.33112793 115.93214355 63.50170898 116.92749023 C64.28189146 122.49102005 64.37153352 128.10241788 64.55078125 133.7109375 C64.59262039 135.00671722 64.63445953 136.30249695 64.67756653 137.63754272 C65.19026842 154.72307843 65.18721694 171.81595275 65.18530273 188.90771484 C65.18520029 193.69610814 65.19898964 198.48435594 65.21607494 203.27271461 C65.22730941 207.04280227 65.22921867 210.81285556 65.22869301 214.58295822 C65.22985067 216.34714648 65.23414279 218.11133632 65.24202538 219.87550735 C65.27990242 229.20236813 65.01117308 238.4138277 64.09887695 247.70068359 C64.01972896 248.50735788 63.94058096 249.31403217 63.85903454 250.14515114 C63.0131006 257.98966061 61.31376376 265.46606046 59 273 C58.66355469 274.11375 58.32710938 275.2275 57.98046875 276.375 C54.0064968 287.60884297 45.77894164 292.59001864 35.37182617 297.62915039 C-20.35246765 323.32104561 -145.00873042 323.70726144 -202 304 C-209.39500388 300.90343694 -217.05127301 297.45963471 -223 292 C-223 291.34 -223 290.68 -223 290 C-223.59329102 289.73123047 -224.18658203 289.46246094 -224.79785156 289.18554688 C-227.00540033 287.99709268 -228.46542882 286.79257611 -230.234375 285.03125 C-230.80800781 284.46019531 -231.38164062 283.88914062 -231.97265625 283.30078125 C-232.55917969 282.70652344 -233.14570313 282.11226563 -233.75 281.5 C-234.35199219 280.90574219 -234.95398438 280.31148438 -235.57421875 279.69921875 C-236.14269531 279.12816406 -236.71117187 278.55710937 -237.296875 277.96875 C-237.81604492 277.44732422 -238.33521484 276.92589844 -238.87011719 276.38867188 C-240 275 -240 275 -240 273 C-240.66 273 -241.32 273 -242 273 C-242 272.34 -242 271.68 -242 271 C-242.66 271 -243.32 271 -244 271 C-245.32519531 269.43041992 -245.32519531 269.43041992 -246.828125 267.23046875 C-247.37831299 266.42859131 -247.92850098 265.62671387 -248.49536133 264.80053711 C-249.07439209 263.93823486 -249.65342285 263.07593262 -250.25 262.1875 C-250.83612061 261.3219751 -251.42224121 260.4564502 -252.02612305 259.56469727 C-263 243.19949975 -263 243.19949975 -263 239 C-263.65484375 238.76925781 -264.3096875 238.53851563 -264.984375 238.30078125 C-268.95044777 236.59002706 -272.55164168 234.40870818 -276.25 232.1875 C-277.77812855 231.27777636 -279.306769 230.36891199 -280.8359375 229.4609375 C-281.56135742 229.03006836 -282.28677734 228.59919922 -283.03417969 228.15527344 C-285.29077095 226.8291197 -287.57373607 225.55936664 -289.875 224.3125 C-298.93826076 219.32770658 -308.07815727 213.66538025 -316 207 C-316 206.34 -316 205.68 -316 205 C-316.55558594 204.76152344 -317.11117187 204.52304687 -317.68359375 204.27734375 C-320.53061436 202.70740153 -322.66928174 200.76079551 -325.0625 198.5625 C-325.91972656 197.78003906 -326.77695312 196.99757813 -327.66015625 196.19140625 C-328.43230469 195.46824219 -329.20445312 194.74507812 -330 194 C-330.53238281 193.56300781 -331.06476563 193.12601563 -331.61328125 192.67578125 C-333.82585329 190.00199701 -334.89375902 186.82993883 -336.125 183.625 C-336.38925781 182.965 -336.65351563 182.305 -336.92578125 181.625 C-340.85520526 171.61194999 -342.16428043 158.71124145 -338.4375 148.375 C-334.11768889 139.5403863 -327.13437434 135.14440767 -318 132 C-304.32883558 129.12471542 -291.47141941 131.19092616 -279 137 C-279.00523682 135.91396484 -279.01047363 134.82792969 -279.01586914 133.70898438 C-279.18973317 94.20806631 -279.18973317 94.20806631 -278.08349609 75.0925293 C-278.00932373 73.23366571 -278.06203326 71.37071463 -278.1328125 69.51171875 C-278.08898437 68.68285156 -278.04515625 67.85398437 -278 67 C-275.375 64.9375 -275.375 64.9375 -272 63 C-270.87813188 62.10508451 -269.77318959 61.18847744 -268.6875 60.25 C-266 58 -266 58 -265 58 C-264.8125 60.25 -264.8125 60.25 -265 63 C-265.46535156 63.54011719 -265.93070312 64.08023438 -266.41015625 64.63671875 C-268.71906785 68.06888464 -269.03353071 71.519673 -269.625 75.5625 C-269.74617188 76.31080078 -269.86734375 77.05910156 -269.9921875 77.83007812 C-271.58724754 88.03326113 -272.14694441 98.1293358 -272.09765625 108.44921875 C-272.0962413 109.58784866 -272.09482635 110.72647858 -272.09336853 111.89961243 C-272.08782209 115.49560298 -272.07527989 119.09152863 -272.0625 122.6875 C-272.05747807 125.14257722 -272.05291638 127.59765542 -272.04882812 130.05273438 C-272.03787028 136.03517797 -272.02118647 142.01758434 -272 148 C-278.45823115 148.13849233 -278.45823115 148.13849233 -281.625 145.6875 C-289.70243918 140.35305611 -298.49798329 139.74241755 -307.9375 139.6875 C-308.75452393 139.68194092 -309.57154785 139.67638184 -310.41333008 139.6706543 C-317.17446162 139.75234927 -321.3173338 140.8858135 -326.1875 145.8125 C-327.19876953 146.81216797 -327.19876953 146.81216797 -328.23046875 147.83203125 C-331.99019973 152.43832418 -332.3583223 156.90021224 -332.3125 162.6875 C-332.30903564 163.39503418 -332.30557129 164.10256836 -332.30200195 164.83154297 C-332.05371324 176.86188544 -327.66960857 185.92458695 -319.09375 194.2734375 C-314.54938608 198.40604358 -309.52403651 201.91616677 -304.515625 205.45703125 C-302.21217568 207.08778075 -300.03570042 208.78631923 -297.8984375 210.62890625 C-295.14571015 212.88080046 -292.52690144 214.500217 -289.375 216.125 C-286.71298702 217.50447451 -284.24803513 218.81329719 -281.8515625 220.6171875 C-279.94311446 222.19357452 -279.94311446 222.19357452 -277 223 C-277 223.66 -277 224.32 -277 225 C-276.29875 225.0825 -275.5975 225.165 -274.875 225.25 C-271.34301021 226.17138864 -268.98071643 227.92645814 -266 230 C-265.01 230.33 -264.02 230.66 -263 231 C-261.5625 232.3125 -261.5625 232.3125 -260 234 C-259.37222656 234.56203125 -258.74445313 235.1240625 -258.09765625 235.703125 C-255.60964032 238.42743295 -254.39274854 241.07786065 -252.875 244.4375 C-247.77495429 255.16761275 -240.24978353 263.92967558 -232.1953125 272.6015625 C-230.72947437 274.20302979 -229.30672938 275.84500532 -227.9296875 277.5234375 C-218.50358692 288.82780167 -207.34476315 294.97878067 -193 298 C-192.25427734 298.16838379 -191.50855469 298.33676758 -190.74023438 298.51025391 C-129.60176238 312.21071716 -56.74864592 305.65240177 5 297 C6.0631543 296.8654541 7.12630859 296.7309082 8.22167969 296.59228516 C21.21285579 294.91798951 34.58619846 291.42850142 45 283 C47.04891183 279.88265067 47.04891183 279.88265067 48 277 C48.66 277 49.32 277 50 277 C50.0825 275.96875 50.165 274.9375 50.25 273.875 C50.8705354 268.70995537 52.47109405 263.89116405 54.0625 258.953125 C56.75785435 248.98939751 56.14905838 238.13538973 56.1328125 227.90625 C56.13395848 226.45033235 56.13543709 224.99441493 56.13722229 223.53849792 C56.1402129 219.66030107 56.13603083 215.78214827 56.12917709 211.90395737 C56.12498131 209.48924547 56.12203113 207.07453451 56.11929321 204.65982056 C56.09375476 184.75150631 56.03838352 164.84130989 55.73553467 144.93505859 C55.70404448 142.80604948 55.67675431 140.67697318 55.65411377 138.54785156 C55.47056753 122.36719468 54.54689918 106.15530958 49.375 90.6875 C47.91871527 86.14961275 46.66068525 81.73491094 46 77 C45.34 77 44.68 77 44 77 C43.47212891 75.51113281 43.47212891 75.51113281 42.93359375 73.9921875 C38.84337844 62.65777135 34.61156893 51.46804915 27 42 C26.24659478 40.50098342 25.53745106 38.97887235 24.875 37.4375 C20.17824969 27.75496859 12.40763792 19.59676206 4 13 C3.2884375 12.3709375 2.576875 11.741875 1.84375 11.09375 C-5.54446229 5.08467067 -14.60067284 3.29345169 -24.04541016 4.1953125 C-25.70225179 4.42849453 -27.35226812 4.7093495 -29 5 C-29 5.66 -29 6.32 -29 7 C-32.46153846 10 -32.46153846 10 -35 10 C-35.28875 10.61875 -35.5775 11.2375 -35.875 11.875 C-37 14 -37 14 -39 16 C-44.7725372 16.42759535 -50.10294636 15.5888614 -55.77734375 14.53515625 C-64.08044283 13.15633858 -72.18784673 12.82930508 -80.58984375 12.796875 C-81.79561569 12.78995132 -83.00138763 12.78302765 -84.24369812 12.77589417 C-88.14166514 12.75861518 -92.03949642 12.75230036 -95.9375 12.75 C-96.59914909 12.74926357 -97.26079819 12.74852715 -97.94249725 12.7477684 C-119.10029291 12.72854448 -140.00979749 13.19418044 -161 16 C-161.84755859 16.11214844 -162.69511719 16.22429687 -163.56835938 16.33984375 C-168.42536676 17.01990874 -173.20674415 17.96590946 -178 19 C-180.22252984 19.46154663 -182.44519971 19.92241919 -184.66796875 20.3828125 C-196.05781687 22.76551461 -207.39296374 25.26484829 -218.65234375 28.203125 C-221.94941655 28.98795913 -225.20861335 29.52263699 -228.5625 30 C-232.09954954 30.52154886 -234.50738055 31.08106302 -237.4375 33.125 C-242.26615333 36.34809615 -248.44912444 35.45757217 -254 35 C-255.485 34.505 -255.485 34.505 -257 34 C-256.67 32.35 -256.34 30.7 -256 29 C-254.66195312 28.94392578 -254.66195312 28.94392578 -253.296875 28.88671875 C-251.54117188 28.78810547 -251.54117188 28.78810547 -249.75 28.6875 C-248.58984375 28.62949219 -247.4296875 28.57148438 -246.234375 28.51171875 C-242.72008381 27.95571374 -241.75927935 27.07667131 -239 25 C-231.93837431 22.15610168 -224.26697889 20.97954159 -216.8125 19.625 C-208.42004393 18.06195554 -200.07614929 16.38313674 -191.75 14.5 C-182.85353761 12.52240064 -173.92109749 10.84511678 -164.9375 9.3125 C-163.20161621 9.00892578 -163.20161621 9.00892578 -161.43066406 8.69921875 C-142.16954417 5.50058273 -122.93634691 4.62771739 -103.4375 4.6875 C-102.35335815 4.68766113 -101.26921631 4.68782227 -100.15222168 4.68798828 C-84.67771821 4.70393257 -69.51879675 5.32457586 -54.171875 7.34375 C-48.60042366 8.13977457 -48.60042366 8.13977457 -43 8 C-42.34 7.01 -41.68 6.02 -41 5 C-40.34 5 -39.68 5 -39 5 C-39 4.34 -39 3.68 -39 3 C-36.69921875 1.30859375 -36.69921875 1.30859375 -33.6875 -0.5625 C-32.70136719 -1.18253906 -31.71523438 -1.80257812 -30.69921875 -2.44140625 C-20.75095606 -8.18577212 -9.74230214 -4.48599029 0 0 Z " fill="#171718" transform="translate(352,113)"/>
<path d="M0 0 C10.68726709 -0.51524927 19.65445416 4.29608833 27.63671875 11.19140625 C27.63671875 11.85140625 27.63671875 12.51140625 27.63671875 13.19140625 C28.22066406 13.40925781 28.80460937 13.62710937 29.40625 13.8515625 C32.3623245 15.627278 33.5314934 17.70065855 35.32421875 20.62890625 C35.92621094 21.59699219 36.52820313 22.56507813 37.1484375 23.5625 C39.25086119 27.27623003 39.76421592 30.00238853 39.76953125 34.19921875 C39.77082031 35.18664062 39.77210938 36.1740625 39.7734375 37.19140625 C39.76957031 38.22265625 39.76570313 39.25390625 39.76171875 40.31640625 C39.76558594 41.32445312 39.76945312 42.3325 39.7734375 43.37109375 C39.75795241 55.32558384 39.75795241 55.32558384 38.63671875 61.19140625 C37.31532752 61.88144062 35.9814207 62.54797881 34.63671875 63.19140625 C33.96272638 65.04488526 33.29488927 66.90092007 32.6640625 68.76953125 C28.73489385 78.03221021 22.48733954 84.21023024 13.4375 88.1484375 C3.21049836 91.85044305 -8.43878839 91.47266843 -18.56640625 87.66796875 C-23.58265549 85.01972544 -27.43987085 81.23393347 -31.36328125 77.19140625 C-31.94980469 76.64613281 -32.53632813 76.10085938 -33.140625 75.5390625 C-34.36328125 74.19140625 -34.36328125 74.19140625 -34.36328125 72.19140625 C-36.01328125 71.86140625 -37.66328125 71.53140625 -39.36328125 71.19140625 C-40.15687861 68.83787515 -40.94819908 66.48361742 -41.73828125 64.12890625 C-41.96 63.47212891 -42.18171875 62.81535156 -42.41015625 62.13867188 C-43.0729889 60.15992147 -43.71996385 58.17657775 -44.36328125 56.19140625 C-44.75 55.01320313 -45.13671875 53.835 -45.53515625 52.62109375 C-47.76030888 43.40560313 -45.87551099 33.43739798 -41.36328125 25.19140625 C-33.89654791 13.22690773 -23.8412227 5.22129146 -10.36328125 1.19140625 C-6.92360534 0.4305273 -3.50688421 0.28402864 0 0 Z " fill="#EDC671" transform="translate(209.36328125,277.80859375)"/>
<path d="M0 0 C11.71409553 8.07806894 17.15512254 20.43802289 20 34 C20.64928973 40.09446953 20.06902077 45.98675814 19 52 C17.68 52 16.36 52 15 52 C14.89042969 52.56847656 14.78085937 53.13695312 14.66796875 53.72265625 C12.97522781 61.96616699 10.59670969 69.41521277 4 75 C0.11272519 77.26887793 -3.8982322 79.15477577 -8 81 C-8.64195312 81.37898438 -9.28390625 81.75796875 -9.9453125 82.1484375 C-15.86629171 84.60237945 -24.55157859 83.87781021 -30.5 81.6875 C-31.655 81.130625 -32.81 80.57375 -34 80 C-34.99 79.5875 -35.98 79.175 -37 78.75 C-44.0895783 74.61441266 -49.29698638 69.32751813 -53 62 C-53.53367187 60.97777344 -54.06734375 59.95554687 -54.6171875 58.90234375 C-56.58592922 54.21557707 -56.40153557 49.57342205 -56.3125 44.5625 C-56.31572266 43.65951172 -56.31894531 42.75652344 -56.32226562 41.82617188 C-56.20027682 26.51103207 -49.29127347 15.05359003 -39 4 C-27.56061076 -6.87637679 -13.28204911 -7.27856291 0 0 Z " fill="#EDC671" transform="translate(373,273)"/>
<path d="M0 0 C0.1875 2.25 0.1875 2.25 0 5 C-0.46535156 5.54011719 -0.93070312 6.08023438 -1.41015625 6.63671875 C-3.71906785 10.06888464 -4.03353071 13.519673 -4.625 17.5625 C-4.74617188 18.31080078 -4.86734375 19.05910156 -4.9921875 19.83007812 C-6.58724754 30.03326113 -7.14694441 40.1293358 -7.09765625 50.44921875 C-7.0962413 51.58784866 -7.09482635 52.72647858 -7.09336853 53.89961243 C-7.08782209 57.49560298 -7.07527989 61.09152863 -7.0625 64.6875 C-7.05747807 67.14257722 -7.05291638 69.59765542 -7.04882812 72.05273438 C-7.03787028 78.03517797 -7.02118647 84.01758434 -7 90 C-13.45823115 90.13849233 -13.45823115 90.13849233 -16.625 87.6875 C-24.70243918 82.35305611 -33.49798329 81.74241755 -42.9375 81.6875 C-44.16303589 81.67916138 -44.16303589 81.67916138 -45.41333008 81.6706543 C-52.17446162 81.75234927 -56.3173338 82.8858135 -61.1875 87.8125 C-62.19876953 88.81216797 -62.19876953 88.81216797 -63.23046875 89.83203125 C-66.99019973 94.43832418 -67.3583223 98.90021224 -67.3125 104.6875 C-67.30903564 105.39503418 -67.30557129 106.10256836 -67.30200195 106.83154297 C-67.05371324 118.86188544 -62.66960857 127.92458695 -54.09375 136.2734375 C-49.54938608 140.40604358 -44.52403651 143.91616677 -39.515625 147.45703125 C-37.21217568 149.08778075 -35.03570042 150.78631923 -32.8984375 152.62890625 C-30.14571015 154.88080046 -27.52690144 156.500217 -24.375 158.125 C-21.71298702 159.50447451 -19.24803513 160.81329719 -16.8515625 162.6171875 C-14.94311446 164.19357452 -14.94311446 164.19357452 -12 165 C-12 165.66 -12 166.32 -12 167 C-11.29875 167.0825 -10.5975 167.165 -9.875 167.25 C-6.34301021 168.17138864 -3.98071643 169.92645814 -1 172 C-0.01 172.33 0.98 172.66 2 173 C3.4375 174.3125 3.4375 174.3125 5 176 C5.62777344 176.56203125 6.25554687 177.1240625 6.90234375 177.703125 C9.39035968 180.42743295 10.60725146 183.07786065 12.125 186.4375 C17.22504571 197.16761275 24.75021647 205.92967558 32.8046875 214.6015625 C34.27052563 216.20302979 35.69327062 217.84500532 37.0703125 219.5234375 C46.49641308 230.82780167 57.65523685 236.97878067 72 240 C72.74572266 240.16838379 73.49144531 240.33676758 74.25976562 240.51025391 C135.25645721 254.17894573 208.39481457 247.85308266 270 239 C271.65854004 238.76627686 271.65854004 238.76627686 273.35058594 238.52783203 C283.07513438 237.09952953 291.7302692 235.58847088 300.13671875 230.171875 C302 229 302 229 304 229 C304.33 230.65 304.66 232.3 305 234 C306.32 234.33 307.64 234.66 309 235 C250.83911819 266.04238969 129.08189829 264.16695314 66.76171875 247.30078125 C58.07442274 244.296763 48.82203285 240.26113914 42 234 C42 233.34 42 232.68 42 232 C41.11006348 231.5968457 41.11006348 231.5968457 40.20214844 231.18554688 C37.99459967 229.99709268 36.53457118 228.79257611 34.765625 227.03125 C34.19199219 226.46019531 33.61835937 225.88914062 33.02734375 225.30078125 C32.44082031 224.70652344 31.85429688 224.11226562 31.25 223.5 C30.64800781 222.90574219 30.04601562 222.31148437 29.42578125 221.69921875 C28.85730469 221.12816406 28.28882812 220.55710937 27.703125 219.96875 C27.18395508 219.44732422 26.66478516 218.92589844 26.12988281 218.38867188 C25 217 25 217 25 215 C24.34 215 23.68 215 23 215 C23 214.34 23 213.68 23 213 C22.34 213 21.68 213 21 213 C19.67480469 211.43041992 19.67480469 211.43041992 18.171875 209.23046875 C17.62168701 208.42859131 17.07149902 207.62671387 16.50463867 206.80053711 C15.92560791 205.93823486 15.34657715 205.07593262 14.75 204.1875 C14.16387939 203.3219751 13.57775879 202.4564502 12.97387695 201.56469727 C2 185.19949975 2 185.19949975 2 181 C1.34515625 180.76925781 0.6903125 180.53851563 0.015625 180.30078125 C-3.95044777 178.59002706 -7.55164168 176.40870818 -11.25 174.1875 C-12.77812855 173.27777636 -14.306769 172.36891199 -15.8359375 171.4609375 C-16.56135742 171.03006836 -17.28677734 170.59919922 -18.03417969 170.15527344 C-20.29077095 168.8291197 -22.57373607 167.55936664 -24.875 166.3125 C-33.93826076 161.32770658 -43.07815727 155.66538025 -51 149 C-51 148.34 -51 147.68 -51 147 C-51.55558594 146.76152344 -52.11117187 146.52304687 -52.68359375 146.27734375 C-55.53061436 144.70740153 -57.66928174 142.76079551 -60.0625 140.5625 C-60.91972656 139.78003906 -61.77695312 138.99757813 -62.66015625 138.19140625 C-63.43230469 137.46824219 -64.20445313 136.74507812 -65 136 C-65.53238281 135.56300781 -66.06476563 135.12601563 -66.61328125 134.67578125 C-68.82585329 132.00199701 -69.89375902 128.82993883 -71.125 125.625 C-71.38925781 124.965 -71.65351562 124.305 -71.92578125 123.625 C-75.85520526 113.61194999 -77.16428043 100.71124145 -73.4375 90.375 C-69.11768889 81.5403863 -62.13437434 77.14440767 -53 74 C-39.32883558 71.12471542 -26.47141941 73.19092616 -14 79 C-14.00523682 77.91396484 -14.01047363 76.82792969 -14.01586914 75.70898438 C-14.18973317 36.20806631 -14.18973317 36.20806631 -13.08349609 17.0925293 C-13.00932373 15.23366571 -13.06203326 13.37071463 -13.1328125 11.51171875 C-13.08898437 10.68285156 -13.04515625 9.85398438 -13 9 C-10.375 6.9375 -10.375 6.9375 -7 5 C-5.87813188 4.10508451 -4.77318959 3.18847744 -3.6875 2.25 C-1 0 -1 0 0 0 Z " fill="#0F0F10" transform="translate(87,171)"/>
<path d="M0 0 C0.8146875 0.2475 1.629375 0.495 2.46875 0.75 C5.10791899 1.86514183 6.33694229 2.64972837 8 5 C8.89279364 9.60637702 8.9247036 14.14378461 8.94921875 18.81494141 C9.02823125 22.21475817 9.4408876 25.56873878 9.875 28.9375 C10.05087824 30.35936301 10.226655 31.78123857 10.40234375 33.203125 C10.54518799 34.34104492 10.54518799 34.34104492 10.69091797 35.50195312 C11.0354515 38.28652429 11.36443377 41.07268793 11.69140625 43.859375 C13.30748086 57.59547372 15.08212677 71.30284861 17 85 C14.23723823 84.47731534 11.6739124 83.89130413 9 83 C9 82.34 9 81.68 9 81 C8.236875 80.896875 7.47375 80.79375 6.6875 80.6875 C4 80 4 80 2.66796875 78.640625 C0.54202007 76.54952794 -1.7288126 75.42909267 -4.375 74.0625 C-8.30765949 72.03116762 -11.59060736 69.8189986 -15 67 C-16.89268229 65.59989698 -18.78869157 64.20428348 -20.6875 62.8125 C-26.43942578 58.51272297 -31.75035689 53.89193262 -37 49 C-37.94875 48.21625 -38.8975 47.4325 -39.875 46.625 C-43.14420258 42.58657328 -44.5013674 37.92932586 -46 33 C-46.1959375 32.39027344 -46.391875 31.78054688 -46.59375 31.15234375 C-47.22191957 27.82425306 -47.22523207 24.499631 -47.25 21.125 C-47.270625 20.43019531 -47.29125 19.73539062 -47.3125 19.01953125 C-47.35876118 12.87835944 -45.79420932 9.13124311 -41.87890625 4.48046875 C-41.11449219 3.72378906 -40.35007812 2.96710938 -39.5625 2.1875 C-38.41974609 1.03314453 -38.41974609 1.03314453 -37.25390625 -0.14453125 C-28.79906053 -7.10475953 -9.27890692 -3.43663219 0 0 Z " fill="#42404B" transform="translate(66,255)"/>
<path d="M0 0 C2.97 0.33 5.94 0.66 9 1 C8.34 2.32 7.68 3.64 7 5 C6.34 5 5.68 5 5 5 C5 5.66 5 6.32 5 7 C4.34 7 3.68 7 3 7 C3.061875 7.7425 3.12375 8.485 3.1875 9.25 C3 12 3 12 1.61157227 13.8215332 C-0.25807467 16.34885628 -1.03334917 18.60990078 -1.97265625 21.60546875 C-2.31490234 22.67087891 -2.65714844 23.73628906 -3.00976562 24.83398438 C-3.35716797 25.94064453 -3.70457031 27.04730469 -4.0625 28.1875 C-4.75482304 30.39150087 -5.45369554 32.59345874 -6.16015625 34.79296875 C-6.46574463 35.7677417 -6.77133301 36.74251465 -7.08618164 37.74682617 C-8 40 -8 40 -10 41 C-11.32934344 41.13502598 -12.66451387 41.21523279 -13.99975586 41.26538086 C-14.82499252 41.29889145 -15.65022919 41.33240204 -16.50047302 41.3669281 C-17.84408653 41.41539635 -17.84408653 41.41539635 -19.21484375 41.46484375 C-21.11784521 41.54345861 -23.02083978 41.62224019 -24.92382812 41.70117188 C-27.91860424 41.8200839 -30.91344092 41.93659252 -33.90844727 42.04956055 C-47.98860971 42.50193196 -47.98860971 42.50193196 -61.89233398 44.59741211 C-64.92965456 45.17757447 -67.91634074 45.03644987 -71 45 C-73.65416828 45.40214671 -76.24861405 45.8445352 -78.875 46.375 C-79.57681396 46.51075439 -80.27862793 46.64650879 -81.00170898 46.78637695 C-84.7083367 47.51107431 -88.38971759 48.30881368 -92.0625 49.1875 C-97.7315123 50.43061045 -101.85872367 50.8702312 -106.9375 47.75 C-111.77798734 44.80071856 -116.67267961 43.62841498 -122.15209961 42.43261719 C-125.41606999 41.70684342 -128.32927009 40.85580241 -131.3984375 39.51171875 C-152.6251999 30.60200395 -182.29455842 29.56921384 -204.49609375 34.828125 C-207.05534394 35.78906291 -207.05534394 35.78906291 -208.3359375 37.76171875 C-213.49293039 55.14381831 -209.82089441 76.15755447 -206.0625 93.5625 C-205.90491211 94.30024658 -205.74732422 95.03799316 -205.58496094 95.7980957 C-204.52355579 100.46647033 -202.94012036 104.60679551 -201 109 C-200.3244683 111.15759173 -199.67767906 113.32443114 -199.0625 115.5 C-197.97323609 119.14612384 -196.95118873 122.45176353 -194.9375 125.6875 C-192.45464035 129.93238909 -191.25604225 134.27081061 -190 139 C-190.66 139.33 -191.32 139.66 -192 140 C-198.49590316 136.92958918 -201.48326301 130.96171701 -203.9765625 124.44921875 C-204.46415528 122.94457637 -204.92850465 121.43201241 -205.359375 119.91015625 C-206.00481657 117.7096542 -206.00481657 117.7096542 -208 115 C-208.53450846 113.3002771 -209.00685661 111.58052273 -209.4375 109.8515625 C-209.69273437 108.84609375 -209.94796875 107.840625 -210.2109375 106.8046875 C-210.47132813 105.75539063 -210.73171875 104.70609375 -211 103.625 C-211.51777017 101.5539193 -212.03850525 99.48357711 -212.5625 97.4140625 C-212.79066406 96.4957666 -213.01882812 95.5774707 -213.25390625 94.63134766 C-213.95762475 91.97191391 -213.95762475 91.97191391 -215.05029297 89.39111328 C-216.3599062 86.09385056 -216.72515092 82.74878222 -217.125 79.25 C-217.20919189 78.5369873 -217.29338379 77.82397461 -217.38012695 77.08935547 C-218.34346062 68.51793064 -217.99924328 60.54709878 -217 52 C-217.99 52 -218.98 52 -220 52 C-219.67 51.4225 -219.34 50.845 -219 50.25 C-217.72924102 47.80116138 -217.72924102 47.80116138 -218 44 C-218.55429688 44.5053125 -219.10859375 45.010625 -219.6796875 45.53125 C-220.76636719 46.50578125 -220.76636719 46.50578125 -221.875 47.5 C-222.95394531 48.47453125 -222.95394531 48.47453125 -224.0546875 49.46875 C-226 51 -226 51 -228 51 C-226.84826645 48.53199953 -225.95216435 46.95216435 -224 45 C-224.99 44.67 -225.98 44.34 -227 44 C-226.76435605 39.91550495 -226.59037881 37.65785068 -223.8125 34.5625 C-220.58823227 32.77124015 -218.63195497 32.66214372 -215 33 C-215 32.34 -215 31.68 -215 31 C-213.02 31 -211.04 31 -209 31 C-208.67 30.01 -208.34 29.02 -208 28 C-204.71010715 27.48785549 -201.41787138 26.99259936 -198.125 26.5 C-197.2071875 26.35691406 -196.289375 26.21382812 -195.34375 26.06640625 C-189.8975591 25.26098365 -184.66485584 24.88690601 -179.16064453 24.97851562 C-176.69910757 25.00299192 -174.31553625 24.8149079 -171.875 24.5 C-170.59625 24.335 -169.3175 24.17 -168 24 C-168 24.66 -168 25.32 -168 26 C-167.11183594 26.01417969 -166.22367188 26.02835938 -165.30859375 26.04296875 C-145.65598832 26.7767189 -124.96419081 31.48561323 -106.890625 39.265625 C-105.0273241 40.12069149 -105.0273241 40.12069149 -103 40 C-103 40.66 -103 41.32 -103 42 C-97.27491808 42.21513878 -92.16329523 41.96863993 -86.609375 40.5703125 C-82.00180193 39.56326809 -77.31263767 39.09479352 -72.63671875 38.50390625 C-69.66957667 38.092777 -66.79719593 37.58105049 -63.875 36.9375 C-52.16816049 34.48726105 -40.08710048 34.87071203 -28.1875 34.9375 C-26.6087254 34.94253053 -25.02994922 34.94709066 -23.45117188 34.95117188 C-19.6340748 34.96204184 -15.81705545 34.97921864 -12 35 C-12.01587158 33.90220215 -12.03174316 32.8044043 -12.0480957 31.67333984 C-12.00128623 28.09823646 -11.50244894 25.90498501 -10.1875 22.625 C-8.85064756 19.20807996 -7.61835219 15.82593918 -6.5625 12.3125 C-5.06453245 7.70208875 -2.69902436 4.01206324 0 0 Z " fill="#302F39" transform="translate(304,128)"/>
<path d="M0 0 C-0.33 1.32 -0.66 2.64 -1 4 C-1.99 4 -2.98 4 -4 4 C-4.33 4.66 -4.66 5.32 -5 6 C-5.94875 6.2475 -6.8975 6.495 -7.875 6.75 C-11.27533943 7.74456463 -11.27533943 7.74456463 -12.875 11.125 C-13.24625 12.07375 -13.6175 13.0225 -14 14 C-11.525 14.495 -11.525 14.495 -9 15 C-9.33 16.32 -9.66 17.64 -10 19 C-9.34 19 -8.68 19 -8 19 C-8 19.66 -8 20.32 -8 21 C-6.35 21.33 -4.7 21.66 -3 22 C-2.97464582 28.33544053 -2.95713134 34.67086797 -2.94506836 41.00634766 C-2.94003948 43.16162607 -2.93321558 45.31690107 -2.92456055 47.47216797 C-2.91243179 50.56999554 -2.90675722 53.66777801 -2.90234375 56.765625 C-2.89718246 57.72929993 -2.89202118 58.69297485 -2.88670349 59.68585205 C-2.88659019 61.03679962 -2.88659019 61.03679962 -2.88647461 62.41503906 C-2.884254 63.20557678 -2.88203339 63.9961145 -2.87974548 64.81060791 C-2.99973423 66.99516126 -3.39644803 68.90192682 -4 71 C-6.97 71.495 -6.97 71.495 -10 72 C-10.33 72.99 -10.66 73.98 -11 75 C-11.639375 74.835 -12.27875 74.67 -12.9375 74.5 C-14.80826821 73.96073333 -14.80826821 73.96073333 -16 74 C-16.495 74.99 -16.495 74.99 -17 76 C-25.0905664 66.56100586 -29.53526022 59.099445 -29.3125 46.5625 C-29.31572266 45.65951172 -29.31894531 44.75652344 -29.32226562 43.82617188 C-29.20062509 28.55475607 -22.32454572 16.9889078 -12 6 C-8.49223767 2.94507019 -4.85551242 0 0 0 Z " fill="#EDC773" transform="translate(346,271)"/>
<path d="M0 0 C1.46734256 2.93468513 1.40244864 4.73010478 1 8 C-0.53708082 10.54353853 -2.48217004 12.6407703 -4.5 14.8125 C-5.04664307 15.42488525 -5.59328613 16.03727051 -6.15649414 16.66821289 C-7.75781915 18.45795679 -9.376532 20.23035273 -11 22 C-12.48191488 23.64335927 -13.96156957 25.28876389 -15.4375 26.9375 C-16.06269531 27.62585938 -16.68789062 28.31421875 -17.33203125 29.0234375 C-18.96033333 30.95299453 -20.2787533 32.93058882 -21.625 35.0625 C-24 38 -24 38 -27 38.9375 C-30.91956882 37.71263474 -31.83435218 36.19741039 -33.7734375 32.67578125 C-38.20108955 23.0167314 -43.43562629 10.86974188 -42 0 C-39.61941402 -3.82336536 -37.90815288 -5.61578148 -33.75 -7.375 C-21.66029149 -9.38995142 -10.40905843 -6.48959816 0 0 Z " fill="#D6D1CC" transform="translate(168,197)"/>
<path d="M0 0 C10.84821002 3.94103232 17.71454463 16.20690113 22.6796875 25.90625 C24.50885831 30.19235439 25.15037849 33.33826688 25 38 C23.9296875 39.7421875 23.9296875 39.7421875 22 41 C16.55981757 41.44111835 13.05829462 40.48500873 8.18359375 38.11328125 C7.56404312 37.81439499 6.94449249 37.51550873 6.3061676 37.20756531 C5.00470404 36.57599999 3.70645769 35.93776548 2.41137695 35.29321289 C0.44679176 34.31711657 -1.52814203 33.36517245 -3.50585938 32.41601562 C-9.57634256 29.45285202 -15.05584109 26.65124653 -20 22 C-21.4384903 16.0062904 -18.61772764 11.52228074 -15.6328125 6.46875 C-11.47754612 0.18614628 -7.28538727 -1.34687832 0 0 Z " fill="#D5D1CD" transform="translate(345,151)"/>
<path d="M0 0 C0.77988281 0.43441406 1.55976563 0.86882812 2.36328125 1.31640625 C10.46355218 6.22693319 19.58183114 13.51333754 22 23 C21.6875 25.9375 21.6875 25.9375 21 28 C18.79296875 27.90625 18.79296875 27.90625 16 27 C14.22786175 24.84210989 12.77532718 22.84750121 11.3125 20.5 C8.79645095 16.09663662 8.79645095 16.09663662 5 13 C5 12.34 5 11.68 5 11 C4.319375 10.773125 3.63875 10.54625 2.9375 10.3125 C0.45892266 9.20505055 -1.19050626 8.1783301 -3.3125 6.5625 C-10.97645204 0.97970735 -18.22277567 0.14492964 -27.5078125 1.31640625 C-37.27703139 3.01606659 -45.48223961 6.51808969 -53 13 C-53.60714844 13.50144531 -54.21429688 14.00289063 -54.83984375 14.51953125 C-64.55709365 23.25867722 -67.35365711 35.73342236 -70 48 C-72.31 47.67 -74.62 47.34 -77 47 C-76.97470366 36.21111291 -76.4241212 28.08704732 -70 19 C-69.52175781 18.26265625 -69.04351562 17.5253125 -68.55078125 16.765625 C-65.18123756 11.85439967 -61.13457187 8.05298868 -56 5 C-55.34 5 -54.68 5 -54 5 C-54 4.34 -54 3.68 -54 3 C-52.17215398 2.03124161 -50.33739059 1.07553127 -48.5 0.125 C-47.4790625 -0.40867187 -46.458125 -0.94234375 -45.40625 -1.4921875 C-31.72091607 -7.55014495 -12.93141712 -7.7506268 0 0 Z " fill="#0A0707" transform="translate(232,278)"/>
<path d="M0 0 C1.65 0.33 3.3 0.66 5 1 C4.99476318 1.6077124 4.98952637 2.2154248 4.98413086 2.84155273 C4.93164734 9.89493855 4.93898307 16.94667717 5 24 C5.00580078 24.75587402 5.01160156 25.51174805 5.01757812 26.29052734 C5.31490862 46.61306693 8.42098914 71.06938777 16.1875 89.87890625 C17.27086753 92.70712051 18.0853843 95.59415232 18.9375 98.5 C20.08215162 102.35543512 21.27538381 105.72440248 23.3125 109.1875 C25.81129398 113.72811007 24.92880742 118.07328239 24 123 C25.65 121.68 27.3 120.36 29 119 C29 119.99 29 120.98 29 122 C29.928125 122.4640625 29.928125 122.4640625 30.875 122.9375 C32.25 123.625 33.625 124.3125 35 125 C35 125.66 35 126.32 35 127 C23.77096299 125.80645811 14.954617 119.77784773 7 112 C7 111.01 7 110.02 7 109 C9.31 109 11.62 109 14 109 C12.93321878 105.19514697 11.82499056 101.41204542 10.6328125 97.64453125 C5.99107776 82.8547503 2.88535943 67.98000792 0.43359375 52.68359375 C-0.72081823 44.88713824 -0.72081823 44.88713824 -2.52294922 37.23144531 C-3.12431438 34.418509 -3.11175684 31.79839527 -3.09765625 28.921875 C-3.09443359 27.76171875 -3.09121094 26.6015625 -3.08789062 25.40625 C-3.07951172 24.1996875 -3.07113281 22.993125 -3.0625 21.75 C-3.05798828 20.52796875 -3.05347656 19.3059375 -3.04882812 18.046875 C-3.03704815 15.03120054 -3.02059853 12.01562502 -3 9 C-2.34 9 -1.68 9 -1 9 C-1.020625 7.88625 -1.04125 6.7725 -1.0625 5.625 C-1 2 -1 2 0 0 Z " fill="#2F2F3A" transform="translate(120,283)"/>
<path d="M0 0 C0 0.66 0 1.32 0 2 C0.556875 2.2475 1.11375 2.495 1.6875 2.75 C11.98757817 8.31760982 17.64449121 20.18111739 21 31 C21.49091587 34.56055073 21.64763286 37.70473427 20 41 C18.35 41 16.7 41 15 41 C14.47212891 39.22496094 14.47212891 39.22496094 13.93359375 37.4140625 C10.0799053 24.89685863 5.89795413 13.87246448 -6 7 C-13.40451681 3.16594599 -19.85092009 1.39730625 -27.94921875 3.91796875 C-45.85263721 10.85919372 -53.15761683 24.37665057 -61 41 C-62.65 41 -64.3 41 -66 41 C-65.20641956 28.69950315 -60.18462385 18.19443479 -52 9 C-48.53339794 5.96494484 -44.92039023 3.41163399 -41 1 C-40.21109375 0.47664063 -39.4221875 -0.04671875 -38.609375 -0.5859375 C-26.51699181 -7.13899545 -12.21903289 -4.68675234 0 0 Z " fill="#090707" transform="translate(377,266)"/>
<path d="M0 0 C1.4540625 0.0309375 1.4540625 0.0309375 2.9375 0.0625 C4.30108562 5.88872945 3.83085767 10.71208463 0.9375 16.0625 C-0.5475 16.5575 -0.5475 16.5575 -2.0625 17.0625 C-2.41593595 18.39064604 -2.74716632 19.72479541 -3.0625 21.0625 C-9.53719305 28.59703864 -20.58420327 34.14123782 -30.39111328 35.34936523 C-32.74829499 35.46273421 -35.07805548 35.47949932 -37.4375 35.4375 C-38.26822021 35.42734863 -39.09894043 35.41719727 -39.95483398 35.40673828 C-51.25716373 35.12222261 -61.70020382 32.30841271 -69.984375 24.17578125 C-73.7652675 19.59369963 -74.85174744 15.96357178 -75.0625 10.0625 C-73.4125 9.7325 -71.7625 9.4025 -70.0625 9.0625 C-69.62679688 9.72636719 -69.19109375 10.39023437 -68.7421875 11.07421875 C-64.12234955 17.92397848 -60.16163621 23.36278793 -52.0625 26.0625 C-50.928125 26.59875 -49.79375 27.135 -48.625 27.6875 C-40.20342643 30.69408047 -31.84423904 30.2237993 -23.7253418 26.65234375 C-15.42601452 22.5928797 -9.16827554 18.12554429 -6.02734375 9.08203125 C-5.49040538 7.1515505 -4.999807 5.20719013 -4.5703125 3.25 C-3.78514919 -0.13224193 -3.62087519 0.07389541 0 0 Z " fill="#0A0707" transform="translate(391.0625,325.9375)"/>
<path d="M0 0 C2.64 0 5.28 0 8 0 C7.62860771 6.08818079 6.41779414 9.84652796 2.5 14.625 C2.05003662 15.18767578 1.60007324 15.75035156 1.13647461 16.33007812 C-5.66691606 24.53954269 -16.37886513 31.15035892 -27 33 C-43.88889633 33.93032056 -56.43778578 31.75974851 -69.375 20.375 C-72.02378946 17.97222814 -74.00957645 15.98563532 -76 13 C-75.625 10.8125 -75.625 10.8125 -75 9 C-71.9375 8.5 -71.9375 8.5 -68 9 C-65.3164242 11.37704667 -63.22323772 14.19746794 -61 17 C-54.0202181 24.14210241 -45.18579987 26.21926178 -35.375 26.4375 C-26.0800817 26.15267104 -17.17905364 24.25560691 -10 18 C-5.29448362 12.51967972 -2.16146811 6.86583989 0 0 Z " fill="#0C0808" transform="translate(243,341)"/>
<path d="M0 0 C1.98 0 3.96 0 6 0 C6.09498779 1.24160889 6.18997559 2.48321777 6.2878418 3.76245117 C8.47162252 33.29531816 8.47162252 33.29531816 12.4375 62.625 C12.61821045 63.72739014 12.7989209 64.82978027 12.98510742 65.96557617 C14.35291923 73.44516009 16.83624513 80.09684233 20 87 C18.35 86.34 16.7 85.68 15 85 C15 84.34 15 83.68 15 83 C14.236875 82.896875 13.47375 82.79375 12.6875 82.6875 C9.82940576 81.95635961 8.84257115 81.23048087 7 79 C7.495 78.505 7.495 78.505 8 78 C7.83856274 76.35464059 7.59812922 74.71700074 7.328125 73.0859375 C7.15966064 72.02906738 6.99119629 70.97219727 6.81762695 69.88330078 C6.63031006 68.72556152 6.44299316 67.56782227 6.25 66.375 C4.3659234 54.30741159 3.03623172 42.25594702 1.95214844 30.09521484 C1.78440918 28.22663818 1.78440918 28.22663818 1.61328125 26.3203125 C1.51829346 25.21961426 1.42330566 24.11891602 1.32543945 22.98486328 C1.04920808 20.04133202 1.04920808 20.04133202 0.46777344 17.34057617 C-0.20679218 13.9652836 -0.10511373 10.61298864 -0.0625 7.1875 C-0.05798828 6.49462891 -0.05347656 5.80175781 -0.04882812 5.08789062 C-0.03713156 3.39188932 -0.01919924 1.69593297 0 0 Z " fill="#302F39" transform="translate(74,261)"/>
<path d="M0 0 C1.67542976 0.28604898 3.34385343 0.61781233 5 1 C5.15557373 1.73001221 5.31114746 2.46002441 5.47143555 3.2121582 C6.19726138 6.58185456 6.94225365 9.94704766 7.6875 13.3125 C7.93177734 14.46041016 8.17605469 15.60832031 8.42773438 16.79101562 C10.34037111 25.33735444 12.91695775 33.23930974 17.70581055 40.6340332 C19 43 19 43 18.1875 45.8125 C17.5996875 46.8953125 17.5996875 46.8953125 17 48 C14.19140625 47.80859375 14.19140625 47.80859375 11 47 C2.88729862 37.15806068 -1.1629193 18.181909 -1.125 5.6875 C-1.12757812 4.82511719 -1.13015625 3.96273438 -1.1328125 3.07421875 C-1 1 -1 1 0 0 Z " fill="#4E4E4E" transform="translate(50,340)"/>
<path d="M0 0 C2 0.3125 2 0.3125 4 1 C5.69793855 4.39587711 5.39613481 8.25763714 5.5625 12 C5.6049585 12.91031982 5.64741699 13.82063965 5.69116211 14.75854492 C6.18087382 26.50078732 6.09080104 38.25034567 6 50 C4.515 50.495 4.515 50.495 3 51 C-0.5076211 47.3983408 -0.54794336 43.71555788 -0.6875 38.9375 C-0.72020996 38.13199707 -0.75291992 37.32649414 -0.78662109 36.49658203 C-1.05821577 28.79277748 -1.09898901 21.08292208 -1.125 13.375 C-1.12975342 12.17093506 -1.13450684 10.96687012 -1.1394043 9.72631836 C-1.137229 8.60749268 -1.13505371 7.48866699 -1.1328125 6.3359375 C-1.13168457 5.33095215 -1.13055664 4.3259668 -1.12939453 3.29052734 C-1 1 -1 1 0 0 Z " fill="#130C03" transform="translate(202,295)"/>
<path d="M0 0 C1.65 0.33 3.3 0.66 5 1 C5 15.85 5 30.7 5 46 C3.68 46 2.36 46 1 46 C-2.53703589 37.03950909 -2.18157977 27.24605675 -2.1875 17.75 C-2.19974609 16.70070313 -2.21199219 15.65140625 -2.22460938 14.5703125 C-2.2345755 9.32148586 -2.13761414 4.9004593 0 0 Z " fill="#100B06" transform="translate(338,292)"/>
<path d="M0 0 C1.8515625 0.1875 1.8515625 0.1875 4 1 C5.2734375 3.125 5.2734375 3.125 6.375 6 C6.78878906 7.07378906 7.20257813 8.14757812 7.62890625 9.25390625 C8.30759766 11.10822266 8.30759766 11.10822266 9 13 C9.2666748 13.7101123 9.53334961 14.42022461 9.80810547 15.15185547 C10.65501837 17.40947348 11.48670745 19.67207739 12.3125 21.9375 C12.5791748 22.65873047 12.84584961 23.37996094 13.12060547 24.12304688 C14.4400238 27.8392784 15.46072685 31.04359961 15 35 C13.75 36.875 13.75 36.875 12 38 C10.00415039 37.86181641 10.00415039 37.86181641 8 37 C6.95092773 34.97802734 6.95092773 34.97802734 6.18359375 32.3359375 C5.89419922 31.37816406 5.60480469 30.42039063 5.30664062 29.43359375 C4.87641602 27.91958984 4.87641602 27.91958984 4.4375 26.375 C3.85611794 24.40268392 3.2715471 22.43130464 2.68359375 20.4609375 C2.40531738 19.52048584 2.12704102 18.58003418 1.84033203 17.61108398 C1.10335643 15.32114962 0.26308301 13.18346816 -0.73046875 10.99609375 C-2.2270967 7.4640518 -2.01837018 5.6491598 -1 2 C-0.67 1.34 -0.34 0.68 0 0 Z " fill="#383838" transform="translate(434,121)"/>
<path d="M0 0 C2.77090675 0.19109702 3.93654889 0.94249743 6 2.8125 C10.78192952 10.43370017 13.09127311 19.01935899 12 28 C11.67 28.66 11.34 29.32 11 30 C9.09375 29.703125 9.09375 29.703125 7 29 C5.75374632 26.29978369 4.8575611 23.83164977 4 21 C3.65710938 19.88238281 3.31421875 18.76476562 2.9609375 17.61328125 C2.25303794 15.29860248 1.55464416 12.98098863 0.8671875 10.66015625 C0.25668675 8.10564441 0.25668675 8.10564441 -1 7 C-1.125 4 -1.125 4 -1 1 C-0.67 0.67 -0.34 0.34 0 0 Z " fill="#494949" transform="translate(448,125)"/>
<path d="M0 0 C1.65 0.33 3.3 0.66 5 1 C5.02578125 1.61746094 5.0515625 2.23492187 5.078125 2.87109375 C5.58993721 10.51338065 7.67063933 16.38547482 11.8125 22.8125 C13 25 13 25 12.6875 27.3125 C12.460625 27.869375 12.23375 28.42625 12 29 C6.6 28.4 6.6 28.4 4.3125 26.875 C-0.69877625 19.71603393 -1.9475416 10.66996666 -0.515625 2.1015625 C-0.34546875 1.40804688 -0.1753125 0.71453125 0 0 Z " fill="#454545" transform="translate(42,362)"/>
<path d="M0 0 C0.33 0.99 0.66 1.98 1 3 C6.94 3.99 6.94 3.99 13 5 C12.34 6.98 11.68 8.96 11 11 C6.545 11.495 6.545 11.495 2 12 C1.67 13.32 1.34 14.64 1 16 C-1.97 15.505 -1.97 15.505 -5 15 C-5 15.66 -5 16.32 -5 17 C-6.32 16.67 -7.64 16.34 -9 16 C-8.01 15.34 -7.02 14.68 -6 14 C-4.95107762 12.36368108 -3.95093297 10.69514137 -3 9 C-2.34 8.01 -1.68 7.02 -1 6 C-0.34 6 0.32 6 1 6 C0.34 4.35 -0.32 2.7 -1 1 C-0.67 0.67 -0.34 0.34 0 0 Z " fill="#484752" transform="translate(94,144)"/>
<path d="M0 0 C0.66 0 1.32 0 2 0 C2.28875 0.804375 2.5775 1.60875 2.875 2.4375 C3.73262568 5.1326468 3.73262568 5.1326468 6 6 C8.03667273 8.8326138 9.71598801 11.75414994 11 15 C10.3125 18.0625 10.3125 18.0625 9 20 C6.25 19.9375 6.25 19.9375 3 19 C-0.98177261 13.94207263 -2.3537092 8.4492978 -2 2 C-1.34 1.34 -0.68 0.68 0 0 Z " fill="#343434" transform="translate(58,368)"/>
<path d="M0 0 C2.97 0 5.94 0 9 0 C9.40992188 0.78246094 9.81984375 1.56492187 10.2421875 2.37109375 C10.78101563 3.38300781 11.31984375 4.39492188 11.875 5.4375 C12.40867188 6.44683594 12.94234375 7.45617187 13.4921875 8.49609375 C14.75654114 11.10140442 14.75654114 11.10140442 17 12 C17 12.66 17 13.32 17 14 C18.65 12.68 20.3 11.36 22 10 C22 10.99 22 11.98 22 13 C22.928125 13.4640625 22.928125 13.4640625 23.875 13.9375 C25.25 14.625 26.625 15.3125 28 16 C28 16.66 28 17.32 28 18 C16.77096299 16.80645811 7.954617 10.77784773 0 3 C0 2.01 0 1.02 0 0 Z " fill="#3E3D45" transform="translate(127,392)"/>
<path d="M0 0 C2.4375 0.875 2.4375 0.875 4.4375 3.875 C4.4375 4.865 4.4375 5.855 4.4375 6.875 C3.7775 6.875 3.1175 6.875 2.4375 6.875 C1.7775 8.855 1.1175 10.835 0.4375 12.875 C-2.4375 13.5 -2.4375 13.5 -5.5625 13.875 C-6.2225 13.215 -6.8825 12.555 -7.5625 11.875 C-7.42578125 9.81640625 -7.42578125 9.81640625 -6.875 7.4375 C-6.70613281 6.65503906 -6.53726563 5.87257813 -6.36328125 5.06640625 C-5.08215466 1.56049397 -3.84197523 -0.18741343 0 0 Z " fill="#30303A" transform="translate(118.5625,267.125)"/>
<path d="M0 0 C0.33 0 0.66 0 1 0 C1.6875 3.3125 1.6875 3.3125 2 7 C0.62890625 8.484375 0.62890625 8.484375 -1 10 C-2.0252254 11.8900787 -2.0252254 11.8900787 -2.75 13.9375 C-3.01296875 14.60652344 -3.2759375 15.27554687 -3.546875 15.96484375 C-4.07733374 18.34733515 -3.74740656 19.70065371 -3 22 C-2.66666667 23.33333333 -2.33333333 24.66666667 -2 26 C-2.66 25.67 -3.32 25.34 -4 25 C-4 29.62 -4 34.24 -4 39 C-9.06424869 31.40362697 -8.36564779 23.77916439 -7 15 C-5.44684162 9.66278301 -3.19734877 4.5676411 0 0 Z " fill="#DDC07E" transform="translate(171,298)"/>
<path d="M0 0 C0.60585937 0.52335937 1.21171875 1.04671875 1.8359375 1.5859375 C1.8359375 2.2459375 1.8359375 2.9059375 1.8359375 3.5859375 C2.8259375 3.9159375 3.8159375 4.2459375 4.8359375 4.5859375 C4.1759375 5.2459375 3.5159375 5.9059375 2.8359375 6.5859375 C2.8359375 5.9259375 2.8359375 5.2659375 2.8359375 4.5859375 C1.5159375 4.5859375 0.1959375 4.5859375 -1.1640625 4.5859375 C-1.1640625 3.5959375 -1.1640625 2.6059375 -1.1640625 1.5859375 C-2.8140625 0.9259375 -4.4640625 0.2659375 -6.1640625 -0.4140625 C-6.1640625 -1.0740625 -6.1640625 -1.7340625 -6.1640625 -2.4140625 C-6.87433594 -2.54683594 -7.58460938 -2.67960937 -8.31640625 -2.81640625 C-9.23550781 -2.99300781 -10.15460938 -3.16960937 -11.1015625 -3.3515625 C-12.01808594 -3.52558594 -12.93460938 -3.69960938 -13.87890625 -3.87890625 C-16.1640625 -4.4140625 -16.1640625 -4.4140625 -17.1640625 -5.4140625 C-18.57976373 -5.50057861 -19.9996575 -5.52111154 -21.41796875 -5.51171875 C-22.69897461 -5.50688477 -22.69897461 -5.50688477 -24.00585938 -5.50195312 C-25.35260742 -5.48938477 -25.35260742 -5.48938477 -26.7265625 -5.4765625 C-27.62826172 -5.47205078 -28.52996094 -5.46753906 -29.45898438 -5.46289062 C-31.69407564 -5.45106475 -33.92903687 -5.4345847 -36.1640625 -5.4140625 C-36.1640625 -6.4040625 -36.1640625 -7.3940625 -36.1640625 -8.4140625 C-21.4752458 -10.59018349 -12.27672768 -8.65037119 0 0 Z " fill="#CCB273" transform="translate(235.1640625,287.4140625)"/>
<path d="M0 0 C1.828125 0.12890625 1.828125 0.12890625 4 1 C5.484375 3.65234375 5.484375 3.65234375 6.75 6.9375 C7.17796875 8.01902344 7.6059375 9.10054687 8.046875 10.21484375 C9 13 9 13 9 15 C8.34 15 7.68 15 7 15 C7 14.34 7 13.68 7 13 C3.9890638 15.0072908 3.36983503 15.83884224 2 19 C-2.80412371 7.41237113 -2.80412371 7.41237113 -1 2 C-0.67 1.34 -0.34 0.68 0 0 Z " fill="#545454" transform="translate(434,121)"/>
<path d="M0 0 C2.475 0.99 2.475 0.99 5 2 C5.08086376 4.93804996 5.1404283 7.87388075 5.1875 10.8125 C5.21263672 11.64587891 5.23777344 12.47925781 5.26367188 13.33789062 C5.27333984 14.14033203 5.28300781 14.94277344 5.29296875 15.76953125 C5.3086792 16.50792236 5.32438965 17.24631348 5.34057617 18.00708008 C4.91074167 20.52230522 3.92536938 21.39441516 2 23 C-0.13604308 19.79593538 -0.24208908 19.00399253 -0.1953125 15.33203125 C-0.18564453 13.99301758 -0.18564453 13.99301758 -0.17578125 12.62695312 C-0.15902344 11.69818359 -0.14226562 10.76941406 -0.125 9.8125 C-0.11597656 8.87212891 -0.10695312 7.93175781 -0.09765625 6.96289062 C-0.07409056 4.64167032 -0.04119116 2.32096356 0 0 Z " fill="#060202" transform="translate(201,297)"/>
<path d="M0 0 C0.99 0.33 1.98 0.66 3 1 C1.0137115 6.95886551 -2.41610709 10.20805355 -8 13 C-9.32 13 -10.64 13 -12 13 C-11.76435605 8.91550495 -11.59037881 6.65785068 -8.8125 3.5625 C-5.58823227 1.77124015 -3.63195497 1.66214372 0 2 C0 1.34 0 0.68 0 0 Z " fill="#040405" transform="translate(89,159)"/>
<path d="M0 0 C0.33 0 0.66 0 1 0 C1.02061493 0.55488098 1.04122986 1.10976196 1.06246948 1.68145752 C1.27883947 7.45688881 1.50801394 13.23171109 1.74462891 19.00634766 C1.83124992 21.16149146 1.91460576 23.31676909 1.99462891 25.47216797 C2.11022382 28.5703972 2.23755515 31.66795529 2.3671875 34.765625 C2.40061249 35.72929993 2.43403748 36.69297485 2.46847534 37.68585205 C2.50836578 38.58648376 2.54825623 39.48711548 2.58935547 40.41503906 C2.62044403 41.20557678 2.65153259 41.9961145 2.68356323 42.81060791 C3.03643684 45.25210259 3.70441812 46.90702907 5 49 C5.66 49.33 6.32 49.66 7 50 C6.34 50 5.68 50 5 50 C4.67 50.66 4.34 51.32 4 52 C-1.02524317 46.97475683 -0.427771 37.34661789 -0.6875 30.625 C-0.7280249 29.68124512 -0.7685498 28.73749023 -0.81030273 27.76513672 C-1.14040232 18.47108592 -0.69556584 9.26707721 0 0 Z " fill="#B8A069" transform="translate(200,297)"/>
<path d="M0 0 C0.99 0.33 1.98 0.66 3 1 C-6.28437163 8.08544151 -16.55011942 8.97960089 -28 8 C-31.453125 6.98046875 -31.453125 6.98046875 -34 6 C-34 5.67 -34 5.34 -34 5 C-33.41621582 5.01047363 -32.83243164 5.02094727 -32.23095703 5.03173828 C-29.52901699 5.07388108 -26.82714649 5.09950805 -24.125 5.125 C-23.2071875 5.14175781 -22.289375 5.15851563 -21.34375 5.17578125 C-15.14053453 5.21946587 -8.93775347 4.9700667 -3 3 C-2.67 2.34 -2.34 1.68 -2 1 C-1.34 0.67 -0.68 0.34 0 0 Z " fill="#D5BA7F" transform="translate(228,360)"/>
<path d="M0 0 C0.33 0 0.66 0 1 0 C1 8.58 1 17.16 1 26 C0.01 26.33 -0.98 26.66 -2 27 C-4.60334924 24.28817788 -4.99456691 23.10866187 -5.1875 19.25 C-5.125625 18.1775 -5.06375 17.105 -5 16 C-2.525 16.99 -2.525 16.99 0 18 C0 12.06 0 6.12 0 0 Z " fill="#23170B" transform="translate(207,319)"/>
<path d="M0 0 C1.26972656 0.00257813 2.53945313 0.00515625 3.84765625 0.0078125 C5.11480469 0.00523437 6.38195312 0.00265625 7.6875 0 C10.91015625 0.1328125 10.91015625 0.1328125 12.91015625 1.1328125 C12.91015625 1.7928125 12.91015625 2.4528125 12.91015625 3.1328125 C9.84482461 4.66547832 6.64261353 4.23557721 3.28515625 4.1953125 C2.57875 4.19080078 1.87234375 4.18628906 1.14453125 4.18164062 C-0.6002965 4.16985125 -2.34508075 4.15191574 -4.08984375 4.1328125 C-4.08984375 0.17579607 -4.08984375 0.17579607 0 0 Z " fill="#020205" transform="translate(352.08984375,356.8671875)"/>
<path d="M0 0 C1.39664108 0.11562606 2.79231199 0.242992 4.1875 0.375 C4.96480469 0.44460938 5.74210937 0.51421875 6.54296875 0.5859375 C9 1 9 1 11.34375 2 C14.70161401 3.26413704 17.73684428 3.42449594 21.3125 3.625 C23.19388672 3.73714844 23.19388672 3.73714844 25.11328125 3.8515625 C26.06589844 3.90054687 27.01851563 3.94953125 28 4 C27.67 4.66 27.34 5.32 27 6 C18.94525665 6.30544673 12.34996178 6.47452739 5 3 C4.01 2.608125 3.02 2.21625 2 1.8125 C1.34 1.544375 0.68 1.27625 0 1 C0 0.67 0 0.34 0 0 Z " fill="#BEA372" transform="translate(334,350)"/>
<path d="M0 0 C0.33 0 0.66 0 1 0 C1.08636719 0.84304688 1.17273438 1.68609375 1.26171875 2.5546875 C1.40222656 3.65039062 1.54273438 4.74609375 1.6875 5.875 C1.87892578 7.51082031 1.87892578 7.51082031 2.07421875 9.1796875 C2.71612757 12.2302512 2.71612757 12.2302512 5.58203125 13.3828125 C6.37996094 13.58648437 7.17789062 13.79015625 8 14 C8 15.98 8 17.96 8 20 C8.66 20 9.32 20 10 20 C10.66 21.98 11.32 23.96 12 26 C5.3515541 21.44106567 1.63066386 14.47662361 -1 7 C-1.25 3.625 -1.25 3.625 -1 1 C-0.67 0.67 -0.34 0.34 0 0 Z " fill="#D6B982" transform="translate(318,321)"/>
<path d="M0 0 C0.99 0.33 1.98 0.66 3 1 C4.61729417 4.67566856 4.06546005 9.07239675 4 13 C0.125 12.125 0.125 12.125 -1 11 C-1.09823937 9.33570949 -1.12973631 7.66718069 -1.125 6 C-1.12757813 5.0925 -1.13015625 4.185 -1.1328125 3.25 C-1 1 -1 1 0 0 Z " fill="#050101" transform="translate(203,324)"/>
<path d="M0 0 C1.65 0.33 3.3 0.66 5 1 C5.04125 1.928125 5.0825 2.85625 5.125 3.8125 C5.68859031 7.28947638 5.68859031 7.28947638 9.0625 8.875 C10.5165625 9.431875 10.5165625 9.431875 12 10 C11.67 10.66 11.34 11.32 11 12 C6.33333333 9.66666667 1.66666667 7.33333333 -3 5 C-2.01 3.35 -1.02 1.7 0 0 Z " fill="#1B150C" transform="translate(223,275)"/>
<path d="M0 0 C0.33 0.66 0.66 1.32 1 2 C0.06421005 4.35981813 -0.93347808 6.69631264 -2 9 C-2.66 8.67 -3.32 8.34 -4 8 C-4.55429688 8.5053125 -5.10859375 9.010625 -5.6796875 9.53125 C-6.40414062 10.1809375 -7.12859375 10.830625 -7.875 11.5 C-8.59429687 12.1496875 -9.31359375 12.799375 -10.0546875 13.46875 C-12 15 -12 15 -14 15 C-11.5716051 9.53611147 -8.38603261 5.69301631 -3 3 C-2.34 3 -1.68 3 -1 3 C-0.67 2.01 -0.34 1.02 0 0 Z " fill="#1C1C1F" transform="translate(90,164)"/>
<path d="M0 0 C0.87863694 3.00441313 1.09627253 5.61423122 1.02734375 8.73828125 C1.01509766 9.64126953 1.00285156 10.54425781 0.99023438 11.47460938 C0.95529438 13.35489883 0.91628301 15.23511739 0.87304688 17.11523438 C0.80787414 22.50923657 1.2066231 26.90118332 3 32 C2.01 32 1.02 32 0 32 C-2.26664067 25.78193595 -2.08950018 20.30303521 -1.6875 13.75 C-1.63916016 12.75742187 -1.59082031 11.76484375 -1.54101562 10.7421875 C-1.1508525 3.45255751 -1.1508525 3.45255751 0 0 Z " fill="#73634A" transform="translate(317,303)"/>
<path d="M0 0 C0.66 0.33 1.32 0.66 2 1 C2.63385922 3.04243528 3.01826504 5.09132519 3.4375 7.1875 C3.623125 7.785625 3.80875 8.38375 4 9 C4.66 9.33 5.32 9.66 6 10 C5.360625 10.12375 4.72125 10.2475 4.0625 10.375 C3.381875 10.58125 2.70125 10.7875 2 11 C1.67 11.66 1.34 12.32 1 13 C0.01 13 -0.98 13 -2 13 C-1.855625 12.34 -1.71125 11.68 -1.5625 11 C-0.87700084 7.34400449 -0.43824485 3.69377805 0 0 Z " fill="#4D4541" transform="translate(166,340)"/>
<path d="M0 0 C5.79845589 2.22068523 11.16274943 5.06219285 16 9 C16 9.66 16 10.32 16 11 C16.99 11.33 17.98 11.66 19 12 C18.34 12.66 17.68 13.32 17 14 C17 13.34 17 12.68 17 12 C15.68 12 14.36 12 13 12 C13 11.01 13 10.02 13 9 C10.525 8.01 10.525 8.01 8 7 C8 6.34 8 5.68 8 5 C6.865625 4.731875 5.73125 4.46375 4.5625 4.1875 C3.386875 3.795625 2.21125 3.40375 1 3 C0.67 2.01 0.34 1.02 0 0 Z " fill="#D8BE82" transform="translate(221,280)"/>
<path d="M0 0 C0.33 0.99 0.66 1.98 1 3 C2.91666667 4.16666667 2.91666667 4.16666667 5 5 C5.66 5.33 6.32 5.66 7 6 C7 6.66 7 7.32 7 8 C5.41439607 7.74279326 3.83154076 7.46861201 2.25 7.1875 C1.36828125 7.03667969 0.4865625 6.88585937 -0.421875 6.73046875 C-3.1910911 5.94585752 -4.8259401 4.85404641 -7 3 C-6.01 2.67 -5.02 2.34 -4 2 C-4 2.66 -4 3.32 -4 4 C-2.68 2.68 -1.36 1.36 0 0 Z " fill="#2C2B32" transform="translate(148,402)"/>
<path d="M0 0 C0.33 0 0.66 0 1 0 C1 6.6 1 13.2 1 20 C0.34 20 -0.32 20 -1 20 C-1 21.32 -1 22.64 -1 24 C-1.66 24 -2.32 24 -3 24 C-3 21.36 -3 18.72 -3 16 C-2.01 16 -1.02 16 0 16 C0 10.72 0 5.44 0 0 Z " fill="#ECC881" transform="translate(199,296)"/>
<path d="M0 0 C-0.33 1.32 -0.66 2.64 -1 4 C-1.99 4 -2.98 4 -4 4 C-4.33 4.66 -4.66 5.32 -5 6 C-5.99 6.309375 -6.98 6.61875 -8 6.9375 C-9.485 7.4634375 -9.485 7.4634375 -11 8 C-11.33 8.99 -11.66 9.98 -12 11 C-12.99 11 -13.98 11 -15 11 C-13.59127675 7.63512219 -12.00344528 5.94290543 -9.0625 3.8125 C-8.37285156 3.30332031 -7.68320312 2.79414063 -6.97265625 2.26953125 C-4.66218675 0.78259544 -2.77054642 0 0 0 Z " fill="#CFB47C" transform="translate(346,271)"/>
<path d="M0 0 C0.66 0.33 1.32 0.66 2 1 C-4.47798583 5.519525 -8.89805514 7.32191442 -16.8125 7.125 C-17.85180664 7.11146484 -17.85180664 7.11146484 -18.91210938 7.09765625 C-20.60822395 7.07426157 -22.30415871 7.03839641 -24 7 C-24 6.67 -24 6.34 -24 6 C-22.67935547 5.92652344 -22.67935547 5.92652344 -21.33203125 5.8515625 C-20.17058594 5.77679688 -19.00914062 5.70203125 -17.8125 5.625 C-16.08966797 5.52058594 -16.08966797 5.52058594 -14.33203125 5.4140625 C-11.18238334 5.02266428 -8.89487441 4.22994664 -6 3 C-5.01 3 -4.02 3 -3 3 C-3 2.34 -3 1.68 -3 1 C-2.01 0.67 -1.02 0.34 0 0 Z " fill="#DEC181" transform="translate(374,347)"/>
<path d="M0 0 C5.26170694 1.41167747 8.72171358 3.74850232 13 7 C12.34 7.66 11.68 8.32 11 9 C11 8.34 11 7.68 11 7 C10.113125 7.103125 9.22625 7.20625 8.3125 7.3125 C5 7 5 7 2.125 4.625 C0 2 0 2 0 0 Z " fill="#DABA7C" transform="translate(365,270)"/>
<path d="M0 0 C0.33 0 0.66 0 1 0 C1.85373239 7.02804699 2.12109311 13.92278069 2 21 C0.68 21.33 -0.64 21.66 -2 22 C-1.67 21.34 -1.34 20.68 -1 20 C-0.84876169 18.4804236 -0.75118307 16.95527498 -0.68359375 15.4296875 C-0.64169922 14.53378906 -0.59980469 13.63789063 -0.55664062 12.71484375 C-0.49766602 11.30912109 -0.49766602 11.30912109 -0.4375 9.875 C-0.39431641 8.93011719 -0.35113281 7.98523438 -0.30664062 7.01171875 C-0.20040928 4.67462908 -0.09836824 2.3374317 0 0 Z " fill="#E6CA80" transform="translate(209,324)"/>
<path d="M0 0 C0.33 0 0.66 0 1 0 C1.8125 3.1875 1.8125 3.1875 2 7 C-0.3125 9.9375 -0.3125 9.9375 -3 12 C-3.66 12 -4.32 12 -5 12 C-4.35550393 8.98782888 -3.34977818 6.48344164 -1.9375 3.75 C-1.57527344 3.04359375 -1.21304688 2.3371875 -0.83984375 1.609375 C-0.56269531 1.07828125 -0.28554687 0.5471875 0 0 Z " fill="#D4B676" transform="translate(171,298)"/>
<path d="M0 0 C4.82383035 7.23574552 3.4634132 16.76830077 2 25 C1.67 25 1.34 25 1 25 C1.03480469 23.37191406 1.03480469 23.37191406 1.0703125 21.7109375 C1.0890827 20.26563193 1.10728156 18.82031885 1.125 17.375 C1.14175781 16.66214844 1.15851563 15.94929688 1.17578125 15.21484375 C1.21728187 10.69127604 0.50403062 7.30986926 -1 3 C-0.67 2.01 -0.34 1.02 0 0 Z " fill="#D2B981" transform="translate(390,300)"/>
<path d="M0 0 C0.66 0 1.32 0 2 0 C3.68158146 3.66864051 4.24028871 6.49416047 4.1953125 10.51953125 C4.18886719 11.54111328 4.18242187 12.56269531 4.17578125 13.61523438 C4.15902344 14.67033203 4.14226562 15.72542969 4.125 16.8125 C4.11597656 17.88693359 4.10695312 18.96136719 4.09765625 20.06835938 C4.07415306 22.71246854 4.04129575 25.35611872 4 28 C3.67 28 3.34 28 3 28 C2.98018066 27.34926514 2.96036133 26.69853027 2.93994141 26.02807617 C2.84470701 23.08080849 2.73502182 20.13425115 2.625 17.1875 C2.5940625 16.16333984 2.563125 15.13917969 2.53125 14.08398438 C2.49257812 13.10107422 2.45390625 12.11816406 2.4140625 11.10546875 C2.3826416 10.19949951 2.3512207 9.29353027 2.31884766 8.36010742 C2.13972081 5.73474608 2.13972081 5.73474608 0 3 C0 2.01 0 1.02 0 0 Z " fill="#C1AC7F" transform="translate(245,302)"/>
<path d="M0 0 C1.32 0.66 2.64 1.32 4 2 C3.67 8.27 3.34 14.54 3 21 C2.67 21 2.34 21 2 21 C2 15.06 2 9.12 2 3 C0.68 2.34 -0.64 1.68 -2 1 C-1.34 0.67 -0.68 0.34 0 0 Z " fill="#BEA470" transform="translate(341,290)"/>
<path d="M0 0 C3.9429464 1.46596725 5.01834588 3.37308275 6.75 7.125 C7.17796875 8.03507812 7.6059375 8.94515625 8.046875 9.8828125 C8.51867187 10.93082031 8.51867187 10.93082031 9 12 C8.01 12 7.02 12 6 12 C3 6.25 3 6.25 3 4 C2.34 3.67 1.68 3.34 1 3 C0.67 2.01 0.34 1.02 0 0 Z " fill="#D4BC7F" transform="translate(380,282)"/>
<path d="M0 0 C2.83022097 3.99560608 1.76210446 7.42737323 1 12 C0.67 12 0.34 12 0 12 C0 10.02 0 8.04 0 6 C-2.33075929 6.95865509 -2.33075929 6.95865509 -4 10 C-3.51171875 3.9453125 -3.51171875 3.9453125 -3 2 C-2.01 1.34 -1.02 0.68 0 0 Z " fill="#3C3B43" transform="translate(86,178)"/>
<path d="M0 0 C0.66 0.33 1.32 0.66 2 1 C1.01 3.31 0.02 5.62 -1 8 C-1.66 8 -2.32 8 -3 8 C-3.33 8.99 -3.66 9.98 -4 11 C-4.66 11 -5.32 11 -6 11 C-5.63076923 4.6 -5.63076923 4.6 -2.4375 1.5625 C-1.633125 1.046875 -0.82875 0.53125 0 0 Z " fill="#505050" transform="translate(83,161)"/>
<path d="M0 0 C0.33 0.66 0.66 1.32 1 2 C0.06421005 4.35981813 -0.93347808 6.69631264 -2 9 C-2.99 9 -3.98 9 -5 9 C-5.33 9.66 -5.66 10.32 -6 11 C-6.375 8.875 -6.375 8.875 -6 6 C-4.20659643 3.76086748 -2.16547337 1.87545461 0 0 Z " fill="#E2C480" transform="translate(178,291)"/>
<path d="M0 0 C1.98 0 3.96 0 6 0 C6 1.32 6 2.64 6 4 C6.66 4 7.32 4 8 4 C8.33 4.99 8.66 5.98 9 7 C6 7 6 7 4.39453125 5.46875 C3.87246094 4.8190625 3.35039062 4.169375 2.8125 3.5 C2.28269531 2.8503125 1.75289062 2.200625 1.20703125 1.53125 C0.80871094 1.0259375 0.41039062 0.520625 0 0 Z " fill="#DDBD7E" transform="translate(177,353)"/>
<path d="M0 0 C1.98 0.66 3.96 1.32 6 2 C5.34 3.65 4.68 5.3 4 7 C2.0625 6.1875 2.0625 6.1875 0 5 C-0.33 4.01 -0.66 3.02 -1 2 C-0.67 1.34 -0.34 0.68 0 0 Z " fill="#040206" transform="translate(228,277)"/>
<path d="M0 0 C0.33 0 0.66 0 1 0 C1.66 5.28 2.32 10.56 3 16 C1.68 15.67 0.36 15.34 -1 15 C-0.67 10.05 -0.34 5.1 0 0 Z " fill="#C3A86D" transform="translate(336,322)"/>
<path d="M0 0 C0.66 0.66 1.32 1.32 2 2 C-0.31 4.64 -2.62 7.28 -5 10 C-5.66 9.34 -6.32 8.68 -7 8 C-3.375 2.25 -3.375 2.25 0 0 Z " fill="#21130B" transform="translate(176,290)"/>
<path d="M0 0 C2.09350689 3.4019487 2.17942163 6.05272412 2 10 C3.32 10 4.64 10 6 10 C5.67 11.32 5.34 12.64 5 14 C4.01 13.67 3.02 13.34 2 13 C0.01165038 8.60470084 -0.19118486 4.77962147 0 0 Z " fill="#211003" transform="translate(337,325)"/>
<path d="M0 0 C2.475 0.99 2.475 0.99 5 2 C4.67 2.99 4.34 3.98 4 5 C1.03 4.505 1.03 4.505 -2 4 C-2 4.66 -2 5.32 -2 6 C-3.32 5.67 -4.64 5.34 -6 5 C-4.02 3.35 -2.04 1.7 0 0 Z " fill="#49484F" transform="translate(91,155)"/>
<path d="M0 0 C0.66 0.33 1.32 0.66 2 1 C0.22972246 5.60272162 -1.18699218 8.7129243 -5 12 C-4.67 9.69 -4.34 7.38 -4 5 C-2.68 4.67 -1.36 4.34 0 4 C0 2.68 0 1.36 0 0 Z " fill="#DBBF86" transform="translate(384,333)"/>
<path d="M0 0 C2.97 0.495 2.97 0.495 6 1 C6 2.65 6 4.3 6 6 C0.25 4.25 0.25 4.25 -2 2 C-1.34 2 -0.68 2 0 2 C0 1.34 0 0.68 0 0 Z " fill="#CAC6C5" transform="translate(341,179)"/>
<path d="M0 0 C0.33 0.99 0.66 1.98 1 3 C-1.57784846 5.64752004 -3.91648098 7.94432065 -7 10 C-7.99 9.34 -8.98 8.68 -10 8 C-9.16855469 7.51080078 -9.16855469 7.51080078 -8.3203125 7.01171875 C-7.23363281 6.35623047 -7.23363281 6.35623047 -6.125 5.6875 C-5.40570313 5.25824219 -4.68640625 4.82898438 -3.9453125 4.38671875 C-1.73153667 2.98247625 -1.73153667 2.98247625 0 0 Z " fill="#27190E" transform="translate(235,356)"/>
<path d="M0 0 C0.66 0.33 1.32 0.66 2 1 C2 2.98 2 4.96 2 7 C2.66 7 3.32 7 4 7 C4.66 8.98 5.32 10.96 6 13 C2.36509459 10.70427027 0.68742544 8.92202063 -0.375 4.8125 C-0.58125 3.554375 -0.7875 2.29625 -1 1 C-0.67 0.67 -0.34 0.34 0 0 Z " fill="#DFC282" transform="translate(324,334)"/>
<path d="M0 0 C0.33 0 0.66 0 1 0 C1 1.65 1 3.3 1 5 C0.34 5 -0.32 5 -1 5 C-1.0825 5.61875 -1.165 6.2375 -1.25 6.875 C-2 9 -2 9 -6 11 C-4.02 7.37 -2.04 3.74 0 0 Z " fill="#221507" transform="translate(242,345)"/>
<path d="M0 0 C1.65 0.33 3.3 0.66 5 1 C4.01 1.66 3.02 2.32 2 3 C0.99831469 4.94832935 0.99831469 4.94832935 0.3125 7.125 C0.06113281 7.84945313 -0.19023437 8.57390625 -0.44921875 9.3203125 C-0.63097656 9.87460937 -0.81273437 10.42890625 -1 11 C-2.31538327 6.84228506 -1.34433068 4.1120703 0 0 Z " fill="#D2B67C" transform="translate(242,338)"/>
<path d="M0 0 C1.5625 1.75 1.5625 1.75 3 4 C2.73495121 7.00388632 2.16695725 7.83304275 0 10 C-0.99 9.67 -1.98 9.34 -3 9 C-2.34 8.01 -1.68 7.02 -1 6 C-0.34 6 0.32 6 1 6 C0.34 4.35 -0.32 2.7 -1 1 C-0.67 0.67 -0.34 0.34 0 0 Z " fill="#8E8D90" transform="translate(94,144)"/>
<path d="M0 0 C0.66 0 1.32 0 2 0 C2.33 2.31 2.66 4.62 3 7 C5.475 7.99 5.475 7.99 8 9 C8 9.33 8 9.66 8 10 C6.35 10 4.7 10 3 10 C2.01 6.7 1.02 3.4 0 0 Z " fill="#DCC48A" transform="translate(167,339)"/>
<path d="M0 0 C0.99 0.33 1.98 0.66 3 1 C0.36 3.64 -2.28 6.28 -5 9 C-5.99 8.67 -6.98 8.34 -8 8 C-7.236875 7.4225 -6.47375 6.845 -5.6875 6.25 C-3.33799083 4.28296907 -1.70676495 2.51523256 0 0 Z " fill="#271B0D" transform="translate(383,340)"/>
<path d="M0 0 C3.00617269 3.00617269 2.59585316 5.82381598 3 10 C2.01 10 1.02 10 0 10 C0 6.7 0 3.4 0 0 Z " fill="#5F4F3D" transform="translate(163,327)"/>
<path d="M0 0 C0.66 0 1.32 0 2 0 C0.7874262 3.72433382 -0.50859979 7.37802806 -2 11 C-2.66 10.67 -3.32 10.34 -4 10 C-2.8905928 6.51329166 -1.73662334 3.22515763 0 0 Z " fill="#170B03" transform="translate(319,295)"/>
<path d="M0 0 C1.9375 0.375 1.9375 0.375 4 1 C5.20272819 3.40545638 5.10071472 4.94996953 5.0625 7.625 C5.05347656 8.44226563 5.04445312 9.25953125 5.03515625 10.1015625 C5.02355469 10.72804688 5.01195312 11.35453125 5 12 C4.67 12 4.34 12 4 12 C4 9.36 4 6.72 4 4 C1.525 3.01 1.525 3.01 -1 2 C-0.67 1.34 -0.34 0.68 0 0 Z " fill="#48351A" transform="translate(202,295)"/>
<path d="M0 0 C-0.556875 0.268125 -1.11375 0.53625 -1.6875 0.8125 C-4.19712523 2.10122647 -6.59334236 3.52926478 -9 5 C-9.33 4.01 -9.66 3.02 -10 2 C-6.64608848 -1.35391152 -4.35183427 -1.05855428 0 0 Z " fill="#22170B" transform="translate(192,282)"/>
<path d="M0 0 C0.99 0.33 1.98 0.66 3 1 C2.04882866 2.1725131 1.08882991 3.33787015 0.125 4.5 C-0.40867187 5.1496875 -0.94234375 5.799375 -1.4921875 6.46875 C-1.98976563 6.9740625 -2.48734375 7.479375 -3 8 C-3.66 8 -4.32 8 -5 8 C-3.62845496 5.04590299 -2.01136276 2.55991624 0 0 Z " fill="#6B6B6B" transform="translate(81,171)"/>
<path d="M0 0 C0.66 1.32 1.32 2.64 2 4 C0.7260411 6.03833424 -0.61061923 8.03852126 -2 10 C-2.66 10 -3.32 10 -4 10 C-2.8905928 6.51329166 -1.73662334 3.22515763 0 0 Z " fill="#C9B078" transform="translate(324,289)"/>
<path d="M0 0 C1.65 0.33 3.3 0.66 5 1 C4.67 2.32 4.34 3.64 4 5 C3.67 4.34 3.34 3.68 3 3 C2.01 3 1.02 3 0 3 C-0.33 3.66 -0.66 4.32 -1 5 C-0.67 3.35 -0.34 1.7 0 0 Z " fill="#281708" transform="translate(338,292)"/>
<path d="M0 0 C0.66 0 1.32 0 2 0 C2 0.99 2 1.98 2 3 C1.01 3.33 0.02 3.66 -1 4 C-3.6875 2.0625 -3.6875 2.0625 -6 0 C-3 -1 -3 -1 0 0 Z " fill="#4F4C51" transform="translate(167,193)"/>
<path d="M0 0 C0.66 0 1.32 0 2 0 C2.33 1.98 2.66 3.96 3 6 C1.02 6.99 1.02 6.99 -1 8 C-0.67 5.36 -0.34 2.72 0 0 Z " fill="#E9CB82" transform="translate(387,295)"/>
<path d="M0 0 C0.1875 2.375 0.1875 2.375 0 5 C-0.99 5.66 -1.98 6.32 -3 7 C-3.33 5.02 -3.66 3.04 -4 1 C-2 0 -2 0 0 0 Z " fill="#3C3C42" transform="translate(398,326)"/>
<path d="M0 0 C0.66 0 1.32 0 2 0 C2 0.66 2 1.32 2 2 C2.66 2.33 3.32 2.66 4 3 C2.68 3.99 1.36 4.98 0 6 C-0.66 4.68 -1.32 3.36 -2 2 C-1.34 1.34 -0.68 0.68 0 0 Z " fill="#C6C2BE" transform="translate(156,213)"/>
<path d="M0 0 C-0.99 1.485 -0.99 1.485 -2 3 C-5.625 3.1875 -5.625 3.1875 -9 3 C-6.40821726 0.40821726 -3.54324677 -1.77162338 0 0 Z " fill="#271E0E" transform="translate(374,351)"/>
<path d="M0 0 C1.32 0.99 2.64 1.98 4 3 C2.35 4.65 0.7 6.3 -1 8 C-0.67 5.36 -0.34 2.72 0 0 Z " fill="#DABE71" transform="translate(343,334)"/>
<path d="M0 0 C0.66 0 1.32 0 2 0 C3.80230168 3.82989106 4.19622241 6.78121808 4 11 C3.67 11 3.34 11 3 11 C0.85714286 3.57142857 0.85714286 3.57142857 0 0 Z " fill="#BDA372" transform="translate(245,302)"/>
<path d="M0 0 C0.99 0.33 1.98 0.66 3 1 C0.525 4.465 0.525 4.465 -2 8 C-2.33 6.68 -2.66 5.36 -3 4 C-2.01 3.67 -1.02 3.34 0 3 C0 2.01 0 1.02 0 0 Z " fill="#261A0B" transform="translate(329,279)"/>
<path d="M0 0 C1.32 0 2.64 0 4 0 C3.34 1.32 2.68 2.64 2 4 C1.34 4 0.68 4 0 4 C-0.33 4.99 -0.66 5.98 -1 7 C-1.04254356 5.00045254 -1.04080783 2.99958364 -1 1 C-0.67 0.67 -0.34 0.34 0 0 Z " fill="#D9D7D6" transform="translate(128,196)"/>
<path d="M0 0 C-0.33 0.66 -0.66 1.32 -1 2 C-4.63 2 -8.26 2 -12 2 C-7.93192322 -0.71205119 -4.69252613 -1.56417538 0 0 Z " fill="#646464" transform="translate(152,131)"/>
</svg>
